<svg width="1080" height="1080" viewBox="0 0 1080 1080" fill="none" xmlns="http://www.w3.org/2000/svg">
<rect width="1080" height="1080" fill="white"/>
<g clip-path="url(#clip0_1809_643)">
<path d="M808.706 260.317H685.789L841.053 529.811L685.789 799.768H808.706L963.97 529.811L808.706 260.317Z" fill="#57C1FF"/>
<path d="M272.088 260.317H395.005L239.741 529.811L395.005 799.768H272.088L116.824 529.811L272.088 260.317Z" fill="#57C1FF"/>
<path d="M348.803 799.768L193.539 529.811L348.803 260.317H732.033L887.296 529.811L732.033 799.768H348.803Z" fill="#003E54"/>
<path d="M505.925 693.729H407.961V366.354H510.084C603.427 366.354 672.741 410.344 672.741 530.273C672.741 645.109 589.564 693.729 505.925 693.729ZM508.235 429.792H473.578V629.828H505.925C574.315 629.828 605.737 589.543 605.737 529.81C605.737 463.131 577.087 429.792 508.235 429.792Z" fill="white"/>
</g>
<defs>
<clipPath id="clip0_1809_643">
<rect width="847.172" height="558.364" fill="white" transform="translate(116.828 260.318)"/>
</clipPath>
</defs>
</svg>
