<svg width="1800" height="1020" viewBox="0 0 1800 1020" fill="none" xmlns="http://www.w3.org/2000/svg">
<g opacity="0.4">
<path fill-rule="evenodd" clip-rule="evenodd" d="M539.972 -693.815L1003.63 -380.651L1037.13 96.3864L919.835 28.6637L955.769 350.831L1252.74 220.867L1135.44 153.144L1565.32 -56.362L2068.36 188.599L1260.81 1587.31L801.314 1227.9L1064.25 772.486L664.84 854.734L536.364 467.711L273.429 923.128L-267.574 704.897L539.972 -693.815ZM569.819 -567.918L-140.155 661.792L234.519 812.93L557.899 252.82L723.806 752.602L1239.58 646.391L916.204 1206.5L1234.43 1455.41L1944.4 225.699L1566.25 41.5542L1322.86 160.176L1447.47 232.123L881.236 479.926L812.721 -134.351L937.336 -62.4046L918.368 -332.503L569.819 -567.918Z" fill="url(#paint0_linear_16_61)" fill-opacity="0.4"/>
<path d="M569.801 -568.69L920.544 -332.652L938.757 -61.1291L814.086 -133.108L882.632 478.058L1446.19 231.838L1322.61 160.49L1566.23 41.5955L1944.46 224.972L1235.24 1455.91L915.254 1207.01L1238.53 647.082L723.52 753.647L557.674 255.448L235.663 813.187L-141.148 662.71L569.801 -568.69Z" fill="url(#paint1_linear_16_61)"/>
</g>
<defs>
<linearGradient id="paint0_linear_16_61" x1="1304.16" y1="-252.608" x2="496.618" y2="1146.1" gradientUnits="userSpaceOnUse">
<stop stop-color="#FF83B7"/>
<stop offset="1" stop-color="#5DA4EA"/>
</linearGradient>
<linearGradient id="paint1_linear_16_61" x1="1284.37" y1="-220.294" x2="514.067" y2="1113.91" gradientUnits="userSpaceOnUse">
<stop offset="0.411458" stop-color="white"/>
<stop offset="1" stop-color="#ECD5FF"/>
</linearGradient>
</defs>
</svg>
