<svg width="1800" height="1020" viewBox="0 0 1800 1020" fill="none" xmlns="http://www.w3.org/2000/svg">
<g opacity="0.4">
<path fill-rule="evenodd" clip-rule="evenodd" d="M569.881 -599.165L995.066 -311.989L1025.79 125.461L918.221 63.3583L951.173 358.79L1223.5 239.611L1115.94 177.508L1510.14 -14.6116L1971.43 210.021L1230.9 1492.66L809.536 1163.08L1050.65 745.454L684.387 820.877L566.573 465.971L325.457 883.596L-170.651 683.474L569.881 -599.165ZM597.251 -483.716L-53.8053 643.947L289.776 782.542L586.32 268.913L738.46 727.22L1211.44 629.823L914.892 1143.45L1206.71 1371.71L1857.77 244.042L1511 75.1791L1287.8 183.957L1402.07 249.933L882.825 477.172L819.996 -86.1286L934.27 -20.1527L916.876 -267.837L597.251 -483.716Z" fill="url(#paint0_linear_16_61)" fill-opacity="0.4"/>
<path d="M597.235 -484.424L918.871 -267.973L935.573 -18.983L821.248 -84.9887L884.105 475.46L1400.9 249.672L1287.57 184.245L1510.98 75.217L1857.82 243.376L1207.45 1372.16L914.021 1143.92L1210.47 630.457L738.198 728.179L586.114 271.323L290.825 782.778L-54.7159 644.788L597.235 -484.424Z" fill="url(#paint1_linear_16_61)"/>
</g>
<defs>
<linearGradient id="paint0_linear_16_61" x1="1270.66" y1="-194.572" x2="530.125" y2="1088.07" gradientUnits="userSpaceOnUse">
<stop stop-color="#FF83B7"/>
<stop offset="1" stop-color="#5DA4EA"/>
</linearGradient>
<linearGradient id="paint1_linear_16_61" x1="1252.5" y1="-164.939" x2="546.126" y2="1058.54" gradientUnits="userSpaceOnUse">
<stop offset="0.411458" stop-color="white"/>
<stop offset="1" stop-color="#ECD5FF"/>
</linearGradient>
</defs>
</svg>
