<svg width="24" height="24" viewBox="0 0 24 24" fill="none" xmlns="http://www.w3.org/2000/svg">
<g clip-path="url(#clip0_16_70)">
<path d="M12 5.03066C14.2711 5.03066 14.54 5.04062 15.4332 5.08047C16.2633 5.11699 16.7115 5.25645 17.0104 5.37266C17.4055 5.52539 17.691 5.71133 17.9865 6.00684C18.2854 6.30566 18.468 6.58789 18.6207 6.98301C18.7369 7.28184 18.8764 7.7334 18.9129 8.56016C18.9527 9.45664 18.9627 9.72559 18.9627 11.9934C18.9627 14.2645 18.9527 14.5334 18.9129 15.4266C18.8764 16.2566 18.7369 16.7049 18.6207 17.0037C18.468 17.3988 18.282 17.6844 17.9865 17.9799C17.6877 18.2787 17.4055 18.4613 17.0104 18.6141C16.7115 18.7303 16.26 18.8697 15.4332 18.9062C14.5367 18.9461 14.2678 18.9561 12 18.9561C9.72891 18.9561 9.45996 18.9461 8.5668 18.9062C7.73672 18.8697 7.28848 18.7303 6.98965 18.6141C6.59453 18.4613 6.30898 18.2754 6.01348 17.9799C5.71465 17.6811 5.53203 17.3988 5.3793 17.0037C5.26309 16.7049 5.12363 16.2533 5.08711 15.4266C5.04727 14.5301 5.0373 14.2611 5.0373 11.9934C5.0373 9.72227 5.04727 9.45332 5.08711 8.56016C5.12363 7.73008 5.26309 7.28184 5.3793 6.98301C5.53203 6.58789 5.71797 6.30234 6.01348 6.00684C6.3123 5.70801 6.59453 5.52539 6.98965 5.37266C7.28848 5.25645 7.74004 5.11699 8.5668 5.08047C9.45996 5.04062 9.72891 5.03066 12 5.03066ZM12 3.5C9.69238 3.5 9.40352 3.50996 8.49707 3.5498C7.59395 3.58965 6.97305 3.73574 6.43516 3.94492C5.87402 4.16406 5.39922 4.45293 4.92773 4.92773C4.45293 5.39922 4.16406 5.87402 3.94492 6.43184C3.73574 6.97305 3.58965 7.59062 3.5498 8.49375C3.50996 9.40352 3.5 9.69238 3.5 12C3.5 14.3076 3.50996 14.5965 3.5498 15.5029C3.58965 16.4061 3.73574 17.027 3.94492 17.5648C4.16406 18.126 4.45293 18.6008 4.92773 19.0723C5.39922 19.5437 5.87402 19.8359 6.43184 20.0518C6.97305 20.2609 7.59062 20.407 8.49375 20.4469C9.4002 20.4867 9.68906 20.4967 11.9967 20.4967C14.3043 20.4967 14.5932 20.4867 15.4996 20.4469C16.4027 20.407 17.0236 20.2609 17.5615 20.0518C18.1193 19.8359 18.5941 19.5437 19.0656 19.0723C19.5371 18.6008 19.8293 18.126 20.0451 17.5682C20.2543 17.027 20.4004 16.4094 20.4402 15.5063C20.4801 14.5998 20.49 14.3109 20.49 12.0033C20.49 9.6957 20.4801 9.40684 20.4402 8.50039C20.4004 7.59727 20.2543 6.97637 20.0451 6.43848C19.8359 5.87402 19.5471 5.39922 19.0723 4.92773C18.6008 4.45625 18.126 4.16406 17.5682 3.94824C17.027 3.73906 16.4094 3.59297 15.5063 3.55313C14.5965 3.50996 14.3076 3.5 12 3.5Z" fill="white"/>
<path d="M12 7.63379C9.58945 7.63379 7.63379 9.58945 7.63379 12C7.63379 14.4105 9.58945 16.3662 12 16.3662C14.4105 16.3662 16.3662 14.4105 16.3662 12C16.3662 9.58945 14.4105 7.63379 12 7.63379ZM12 14.8322C10.4361 14.8322 9.16777 13.5639 9.16777 12C9.16777 10.4361 10.4361 9.16777 12 9.16777C13.5639 9.16777 14.8322 10.4361 14.8322 12C14.8322 13.5639 13.5639 14.8322 12 14.8322Z" fill="white"/>
<path d="M17.5582 7.46115C17.5582 8.0256 17.1 8.48049 16.5389 8.48049C15.9744 8.48049 15.5195 8.02228 15.5195 7.46115C15.5195 6.89669 15.9777 6.44181 16.5389 6.44181C17.1 6.44181 17.5582 6.90001 17.5582 7.46115Z" fill="white"/>
</g>
<defs>
<clipPath id="clip0_16_70">
<rect width="17" height="17" fill="white" transform="translate(3.5 3.5)"/>
</clipPath>
</defs>
</svg>
