<svg width="118" height="35" viewBox="0 0 118 35" fill="none" xmlns="http://www.w3.org/2000/svg">
<path d="M11.2428 3.54023L15.3313 9.72769H14.2238H12.661L13.5749 10.9955L17.2573 16.104L17.9063 17.0043L18.5552 16.104L22.2377 10.9955L23.1516 9.72769H21.5887H20.4812L24.5697 3.54023L34.0125 2.85973V32.6838L24.5455 31.3193V21.721V19.914L23.2077 21.1287L17.9063 25.9425L12.6048 21.1287L11.267 19.914V21.721V31.3193L1.8 32.6838V2.85973L11.2428 3.54023Z" fill="url(#paint0_linear_16_80)" stroke="white" stroke-width="1.6"/>
<circle cx="29" cy="7" r="6" fill="#FF5C5C" fill-opacity="0.2"/>
<circle cx="29" cy="7" r="2" fill="#FF5C5C"/>
<path d="M49.5556 26.56H62.8198V32H43.5447V4.83356H49.5556V26.56ZM69.8443 4.83356V32H64.27V4.83356H69.8443ZM86.5602 32H80.1128L71.1469 4.83356H76.8555L83.3365 24.4444L89.8511 4.83356H95.5597L86.5602 32ZM96.8665 4.83356H116.276V10.2736H102.743V15.1091L114.026 15.1763V20.5827L102.743 20.5491V26.5936H116.276V32H96.8665V4.83356Z" fill="url(#paint1_linear_16_80)"/>
<defs>
<linearGradient id="paint0_linear_16_80" x1="17.9063" y1="2" x2="17.9063" y2="33.6074" gradientUnits="userSpaceOnUse">
<stop stop-color="white" stop-opacity="0.7"/>
<stop offset="1" stop-color="white" stop-opacity="0"/>
</linearGradient>
<linearGradient id="paint1_linear_16_80" x1="80" y1="4" x2="80" y2="37" gradientUnits="userSpaceOnUse">
<stop stop-color="white"/>
<stop offset="0.0001" stop-color="white"/>
<stop offset="1" stop-color="white" stop-opacity="0.6"/>
</linearGradient>
</defs>
</svg>
