<?xml version="1.0" encoding="UTF-8" standalone="yes"?><svg xmlns="http://www.w3.org/2000/svg" viewBox="0 0 1794 1794" fill="none" version="1.2" baseProfile="tiny-ps"><title>MHacks Profile</title><mask id="mask0_48_17" maskUnits="userSpaceOnUse" x="0" y="0" width="1794" height="1794" mask-type="alpha"><circle cx="897" cy="897" r="897" fill="url(#paint0_linear_48_17)"></circle></mask><g><rect x="-88" y="-78" width="1980" height="1949" fill="url(#paint1_linear_48_17)"></rect><path fill-rule="evenodd" d="M408 463L717.608 485.357L866.015 710.407H790.879L897.5 858.617L1004.12 710.407H928.985L1077.39 485.357L1387 463V1380L1066.57 1333.72V1035.15L897.5 1188.98L728.433 1035.15V1333.72L408 1380V463ZM457.258 516.431V1322.63L679.175 1290.58V923.374L897.5 1122.02L1115.83 923.374V1290.58L1337.74 1322.63V516.431L1105 533.237L1020.97 660.66H1100.79L897.5 943.252L694.206 660.66H774.028L690 533.237L457.258 516.431Z" fill="url(#paint2_radial_48_17)"></path></g><defs><linearGradient id="paint0_linear_48_17" x1="1344.5" y1="1863" x2="-288" y2="-1395" gradientUnits="userSpaceOnUse"><stop></stop><stop offset="0.96851" stop-color="#915EFF"></stop><stop offset="1" stop-color="#FF3399"></stop></linearGradient><linearGradient id="paint1_linear_48_17" x1="-714.5" y1="-733.5" x2="1690" y2="1959" gradientUnits="userSpaceOnUse"><stop stop-color="#FF3399"></stop><stop offset="0.541853" stop-color="#341F62"></stop><stop offset="1"></stop></linearGradient><radialGradient id="paint2_radial_48_17" cx="0" cy="0" r="1" gradientUnits="userSpaceOnUse"><stop stop-color="#A9FFB3"></stop><stop offset="1" stop-color="#00E5D1"></stop></radialGradient></defs></svg>