<svg width="1080" height="1080" viewBox="0 0 1080 1080" fill="none" xmlns="http://www.w3.org/2000/svg">
<rect width="1080" height="1080" fill="white"/>
<path d="M351.35 626.02C351.35 663.893 320.74 694.503 282.867 694.503C244.994 694.503 214.384 663.893 214.384 626.02C214.384 588.147 244.994 557.538 282.867 557.538H351.35V626.02ZM385.591 626.02C385.591 588.147 416.201 557.538 454.074 557.538C491.947 557.538 522.557 588.147 522.557 626.02V797.227C522.557 835.1 491.947 865.71 454.074 865.71C416.201 865.71 385.591 835.1 385.591 797.227V626.02Z" fill="#E01E5A"/>
<path d="M454.041 351.048C416.168 351.048 385.558 320.438 385.558 282.565C385.558 244.692 416.168 214.083 454.041 214.083C491.914 214.083 522.524 244.692 522.524 282.565V351.048H454.041ZM454.041 385.808C491.914 385.808 522.524 416.418 522.524 454.291C522.524 492.164 491.914 522.774 454.041 522.774H282.315C244.442 522.774 213.832 492.164 213.832 454.291C213.832 416.418 244.442 385.808 282.315 385.808H454.041Z" fill="#36C5F0"/>
<path d="M728.516 454.291C728.516 416.418 759.125 385.808 796.998 385.808C834.871 385.808 865.481 416.418 865.481 454.291C865.481 492.164 834.871 522.774 796.998 522.774H728.516V454.291ZM694.274 454.291C694.274 492.164 663.665 522.774 625.792 522.774C587.919 522.774 557.309 492.164 557.309 454.291V282.565C557.309 244.692 587.919 214.083 625.792 214.083C663.665 214.083 694.274 244.692 694.274 282.565V454.291Z" fill="#2EB67D"/>
<path d="M625.792 728.745C663.665 728.745 694.274 759.354 694.274 797.227C694.274 835.1 663.665 865.71 625.792 865.71C587.919 865.71 557.309 835.1 557.309 797.227V728.745H625.792ZM625.792 694.503C587.919 694.503 557.309 663.893 557.309 626.02C557.309 588.147 587.919 557.538 625.792 557.538H797.517C835.39 557.538 866 588.147 866 626.02C866 663.893 835.39 694.503 797.517 694.503H625.792Z" fill="#ECB22E"/>
</svg>
