<svg width="118" height="35" viewBox="0 0 118 35" fill="none" xmlns="http://www.w3.org/2000/svg">
<path d="M10.2794 3.47775L14.4521 9.79263H13.2238H11.7878L12.6275 10.9575L16.31 16.066L16.9063 16.8932L17.5025 16.066L21.185 10.9575L22.0247 9.79263H20.5887H19.3604L23.5331 3.47775L33.0775 2.78993V32.7588L23.4805 31.3755V21.721V20.0607L22.2513 21.1768L16.9063 26.0303L11.5612 21.1768L10.332 20.0607V21.721V31.3755L0.735055 32.7588V2.78993L10.2794 3.47775Z" fill="url(#paint0_linear_2_9)" stroke="white" stroke-width="1.47011"/>
<path d="M49.5556 26.56H62.8198V32H43.5447V4.83356H49.5556V26.56ZM69.8443 4.83356V32H64.27V4.83356H69.8443ZM86.5602 32H80.1128L71.1469 4.83356H76.8555L83.3365 24.4444L89.8511 4.83356H95.5597L86.5602 32ZM96.8665 4.83356H116.276V10.2736H102.743V15.1091L114.026 15.1763V20.5827L102.743 20.5491V26.5936H116.276V32H96.8665V4.83356Z" fill="url(#paint1_linear_2_9)"/>
<circle cx="29" cy="7" r="6" fill="#FF5C5C" fill-opacity="0.2"/>
<circle cx="29" cy="7" r="2" fill="#FF5C5C"/>
<defs>
<linearGradient id="paint0_linear_2_9" x1="16.9063" y1="2" x2="16.9063" y2="33.6074" gradientUnits="userSpaceOnUse">
<stop stop-color="white" stop-opacity="0.7"/>
<stop offset="1" stop-color="white" stop-opacity="0"/>
</linearGradient>
<linearGradient id="paint1_linear_2_9" x1="80" y1="4" x2="80" y2="37" gradientUnits="userSpaceOnUse">
<stop stop-color="white"/>
<stop offset="0.0001" stop-color="white"/>
<stop offset="1" stop-color="white" stop-opacity="0.6"/>
</linearGradient>
</defs>
</svg>
