<svg width="118" height="35" viewBox="0 0 118 35" fill="none" xmlns="http://www.w3.org/2000/svg">
<path d="M10.2794 2.47775L14.4521 8.79263H13.2238H11.7878L12.6275 9.95751L16.31 15.066L16.9063 15.8932L17.5025 15.066L21.185 9.95751L22.0247 8.79263H20.5887H19.3604L23.5331 2.47775L33.0775 1.78993V31.7588L23.4805 30.3755V20.721V19.0607L22.2513 20.1768L16.9063 25.0303L11.5612 20.1768L10.332 19.0607V20.721V30.3755L0.735055 31.7588V1.78993L10.2794 2.47775Z" fill="url(#paint0_linear_2_9)" stroke="white" stroke-width="1.47011"/>
<path d="M49.5556 24.56H62.8198V30H43.5447V2.83356H49.5556V24.56ZM69.8443 2.83356V30H64.27V2.83356H69.8443ZM86.5602 30H80.1128L71.1469 2.83356H76.8555L83.3365 22.4444L89.8511 2.83356H95.5597L86.5602 30ZM96.8665 2.83356H116.276V8.27357H102.743V13.1091L114.026 13.1763V18.5827L102.743 18.5491V24.5936H116.276V30H96.8665V2.83356Z" fill="url(#paint1_linear_2_9)"/>
<defs>
<linearGradient id="paint0_linear_2_9" x1="16.9063" y1="1" x2="16.9063" y2="32.6074" gradientUnits="userSpaceOnUse">
<stop stop-color="white" stop-opacity="0.7"/>
<stop offset="1" stop-color="white" stop-opacity="0"/>
</linearGradient>
<linearGradient id="paint1_linear_2_9" x1="80" y1="2" x2="80" y2="35" gradientUnits="userSpaceOnUse">
<stop stop-color="white"/>
<stop offset="1" stop-color="white" stop-opacity="0.3"/>
</linearGradient>
</defs>
</svg>
