<svg preserveAspectRatio="xMidYMid meet" data-bbox="0 0 125.373 30" xmlns="http://www.w3.org/2000/svg" viewBox="0 0 125.373 30" height="30" width="126" data-type="color" role="img" aria-label="Base44 logo.">
    <g>
        <path fill="#FF983B" d="M24.097 26.833c.04 0 .057.05.025.075A14.94 14.94 0 0 1 15 30a14.93 14.93 0 0 1-9.122-3.092c-.032-.024-.014-.075.025-.075zm3.912-4.36c-.524.91-1.14 1.76-1.837 2.537a.14.14 0 0 1-.103.046H3.932a.14.14 0 0 1-.104-.047 15 15 0 0 1-1.837-2.537.056.056 0 0 1 .048-.083h25.922c.043 0 .07.046.048.083m1.694-4.49a15 15 0 0 1-.76 2.558.11.11 0 0 1-.103.07H1.16a.11.11 0 0 1-.103-.07 15 15 0 0 1-.76-2.558.056.056 0 0 1 .054-.066H29.65c.035 0 .061.032.054.066M14.9 0C23.23-.055 30 6.682 30 15q0 .549-.038 1.087a.056.056 0 0 1-.055.052H.094a.056.056 0 0 1-.055-.052A15 15 0 0 1 0 15.014C-.007 6.852 6.737.054 14.899 0" data-color="1"></path>
        <path fill="#000000" d="M38.955 5.933h8.237c3.913 0 5.792 1.806 5.792 4.672 0 1.884-1.03 3.253-2.47 3.897 1.777.515 3.217 1.91 3.217 4.205 0 3.276-2.264 5.136-6.54 5.136h-8.236zm7.31 2.968h-3.63v4.439h3.63c1.981 0 2.961-.593 2.961-2.22 0-1.626-.977-2.219-2.96-2.219m.568 7.251H42.64v4.723h4.194c2.035 0 3.14-.644 3.14-2.348s-1.108-2.375-3.14-2.375" data-color="2"></path>
        <path fill="#000000" d="M63.527 23.812v-1.997c-.932 1.51-2.695 2.252-4.693 2.252-2.488 0-4.431-1.33-4.431-3.737 0-2.252 1.712-3.533 4.224-3.97l4.666-.793v-.306c0-1.381-1.038-1.996-2.515-1.996-1.556 0-2.308.692-2.41 1.767h-3.499c.13-2.712 2.308-4.174 5.912-4.174 3.965 0 5.935 1.614 5.935 4.992v7.962zm-.231-5.274v-.588l-3.5.615c-1.398.232-2.048.639-2.048 1.613 0 .844.752 1.382 2.049 1.382 1.685 0 3.499-1.076 3.499-3.022" data-color="2"></path>
        <path fill="#000000" d="M73.692 10.858c3.082 0 5.73 1.304 5.78 4.096h-3.443c-.077-.947-.924-1.69-2.44-1.69-1.235 0-2.108.511-2.108 1.28 0 .77.59.998 1.696 1.203l2.903.565c2.313.433 3.621 1.613 3.621 3.66 0 2.482-2.03 4.095-5.78 4.095-3.749 0-5.957-1.663-6.085-4.351h3.594c.101 1.075.924 1.945 2.62 1.945 1.568 0 2.31-.588 2.31-1.33s-.59-1.049-1.696-1.254l-2.903-.538c-2.31-.433-3.621-1.636-3.621-3.686 0-2.456 2.235-3.992 5.546-3.992z" data-color="2"></path>
        <path fill="#000000" d="M86.82 10.858c4.104 0 6.538 2.433 6.538 6.526v1.102h-9.692c.078 1.562 1.256 3.02 3.128 3.02 1.36 0 2.487-.665 2.794-1.79h3.588c-.562 2.816-3.103 4.351-6.385 4.351-3.794 0-6.642-2.355-6.642-6.603 0-3.968 2.589-6.603 6.665-6.603zm3.024 5.273c-.078-1.637-1.36-2.816-2.95-2.816-1.743 0-2.999 1.304-3.204 2.816z" data-color="2"></path>
        <path fill="#000000" d="M105.998 23.843v-3.717h-8.834v-2.995l8.14-11.198h4.173v17.91zm0-14.064-5.307 7.433h5.307z" data-color="2"></path>
        <path fill="#000000" d="M119.687 20.124h-8.866V17.13l8.167-11.197h4.188V17.21h2.197v2.917h-2.197v3.716h-3.489zm0-10.346-5.326 7.432h5.326z" data-color="2"></path>
    </g>
</svg>
