<?xml version="1.0" encoding="UTF-8"?>
<svg id="Layer_2" xmlns="http://www.w3.org/2000/svg" viewBox="0 0 480.63 71.7">
  <defs>
    <style>
      .cls-1 {
        fill: #5d3084;
      }

      .cls-2 {
        fill: #5c2f84;
      }

      .cls-3 {
        fill: #ae69ab;
      }

      .cls-4 {
        fill: #5c3084;
      }

      .cls-5 {
        fill: #9bca4b;
      }

      .cls-6 {
        fill: #af6aac;
      }

      .cls-7 {
        fill: #5d3184;
      }

      .cls-8 {
        fill: #9ccb4c;
      }

      .cls-9 {
        fill: #acd26a;
      }

      .cls-10 {
        fill: #9dcb4d;
      }

      .cls-11 {
        fill: #a0cc50;
      }
    </style>
  </defs>
  <g id="Layer_1-2" data-name="Layer_1">
    <path class="cls-5" d="M28.05,39.03c.88,3.78.71,7.54-2.18,10.45-.12.26.15.05.26-.04,2.51-2.44,5-5.27,6.57-8.36.5-2.17.59-4.53.61-6.7.9.42.58,2.77,1.16,3.72.35.58-1.01,3.14-.39,2.84,1.09-1.36,2.5-2.54,3.89-3.61.31-.24.44.31.66.45.17.23.48.33.58.58-2.66,3.32-5.26,6.77-7.74,10.27-.19.3-2.29,2.59-1.44,2.19,2.89-2.86,6.95-3.43,10.86-3.96.46-.04.28,1.41.78,1.81.16.22-.02.35-.26.36-7.38,1.2-12.34,8.07-14.75,14.53-.97,2.11-.81,4.96-2.52,6.64-.51.14-2.33.31-2.41-.29.39-1.7,1.31-3.39,1.59-5.06-3.1,3.22-1.69,6.56-6.69,3.25,1.64-2.36,3.75-4.58,4.73-7.36-1.39,1.21-3.25,4.82-5.46,6.19-1.09,1.03-2.38-.9-3.36-1.41-.56-.53-4.02-3.08-2.64-3.63,5.39-3.44,11.75-9.64,10.57-16.43-1.89-4.31-4.97-8.02-7.39-12.06-.53-.8-5.41-5.88-4.26-5.73,1.39-.22,6,6.28,5.48,4.22-.51-1.36-1.48-2.59-2.62-3.51-.29-.16-.04-.32.19-.35.3-.1.39.23.53.43,2.87,5.08,3.54,1.41,5.69,8.18,3.17,5.87,5.78,8.86,3.09,15.76-.05.21.11.11.19-.06.68-1.04,1.27-2.12,1.72-3.26,1.58-3.54,2.22-7.36,2.34-11.19.12-1.25-.11-2.59-.02-3.81,1.43-.7,2.26,3.95,2.64,4.97Z"/>
    <path class="cls-3" d="M43.21,8.44c1.06-.46,5.1,3.12,4.15,1.52-.52-1.45-3.81-2.52-2.4-2.67,3.88-.99,9.65-.05,11.84,3.55,1.05,1.66,1.6,3.71.95,5.59,1.68,2.54,1.21,4.53.09,7.13.35.33,1.45,2.28.9,2.08-2.14-3-5.99-3.07-9.2-4.21-1.5-3.64-5.48-6.19-9.55-5.61-2.95,1.07-6.02-.58-8.83,1.07-.37.2-.75.51-1.07.07-.82-1.27-3.89-1.22-3.89-2.28-1.02-7.07,7.94-13.63,14.02-8.68,1.21.86,1.18,2.85,2.99,2.43Z"/>
    <path class="cls-3" d="M35.38,18.27c2.55.82,2.8-.06,5.17-.21,3.07-.3,6.94,1.85,6.58,5.21-.83,2.06,1.9,2.73,1.58,5.39.11,1.69-.77,3.16-1.53,4.59-.5,2.32-2.55,4.47-5.13,4.11-1.28-.17-2.44-.97-2.83-2.2-.05-.16-.13-.14-.27-.07-2.91,1.5-4.16-2.49-3.91-4.66-1.18,1.11-1.29,2.33-3.37,1.44-2.88-1.02-3.48-4.74-1.61-6.9-2.86-3.29,1.71-7.25,5.3-6.7Z"/>
    <path class="cls-3" d="M54.68,59.46c-4-.45-4.62-4.11-6.01-6.98-.23-.4.36-1.25-.28-1.36-3.68-.43-6.64-3.86-3.74-7.08,2.94-2.88,6.19,1.94,10.22-.57,1.34-.57,1.98-2,2.75-3.03,2.62.26,5.39,1.92,5.89,4.6.01.11.08.18.2.18,1.66-.46,3.18.54,3.65,2.12,1.24,3.51-1.63,9.34-5.89,8.94-.1-.98.71-2.22.36-3.31-.08-.22-.15.01-.17.13-.64,3.11-3.42,6.68-6.98,6.36Z"/>
    <path class="cls-3" d="M10.43,11.93c2.83-.07,5.16,1.89,5.41,4.67.24.88-.72,1.27-1.17,1.89-1.52,1.71-2.75,4.2-1.71,6.43-.54,1.99-3.63,1.55-4.91.45-1.32.57-2.77.26-3.65-.92-1.05-.67,1.56,2.18,2.09,2.16,2.42,1.42,3.53,3.28.08,4.28C2.92,32.12-.37,28.1.03,24.78c.3-1.84.46.44,1.18.53-.53-2.25-.59-4.81,1.02-6.67.24-5.38,2.73-7.53,8.2-6.71Z"/>
    <path class="cls-3" d="M25.59,17.31c6.18,1.1,1.09,2.23,1.42,5.84-.11,1.21,1.14,2.3.26,3.36-.59,1.44-.18,3.1.49,4.43.13.2.14.44-.06.63-2.95,2.84-6.69-.14-8.52-2.72-.16-.16-.22-.06-.29.13-.42,1.08-1.84,1.45-2.83.91-1.1-.51-2.32-2.58-1.63-3.58.3.27,3.49,1.79,2.39.73-3.89-2.66-2.62-6.94,1.06-9.1,1.55-1.7,4.2-2.27,6.3-1.23.11.06.13.19.13.3.02.55.91.21,1.27.29Z"/>
    <path class="cls-3" d="M51.54,42.55c-3.55-.93-.88-.62.04-1.91-1.56.41-4.32.37-4.18-1.83-.44-.45-1.22-.82-1.28-1.54,3.41-2.91,5.67-7.89,3.37-12.1.36-.66-.03-2.24.49-2.5,2.45,1.61,6.34.69,7.45,4.07,1.08,1.86,1.03,4.17.01,6.05.62,1.05,1.26,2.3.55,3.5-.19.67-1.45.29-1.24,1.08.54,2.87-2.26,5.64-5.21,5.19Z"/>
    <path class="cls-3" d="M24.28,5.37c4.3,1.03.29,2.05-.3,5.92-.43.78.16,2.95-.52,3.18-2.14-.54-4.38.21-6.05,1.47-.87-2.71-3.32-5.08-6.45-4.74-.56-.8,3.82-.82,4.46-.42,1.9-3.52,4.1-6.1,8.85-5.41Z"/>
    <path class="cls-3" d="M61.23,28.09c4.47,1.12,4.03,6.28,1.95,9.14,1.36.76,1.99,2.94,1.16,4.22-2.89-2.85-6.57-2.53-5.47-3.46,2.54-3.13.33-4.52,1.29-7.64.31-1.21-1.01-2.58,1.08-2.25Z"/>
    <path class="cls-8" d="M42.11,55.03c-3.02.31.43.87,1.33,1.1.58.22.84.92,1.14,1.41,1.65,5.05-4.07,2.68-4.65-1.15.11-.32,2.1.67,1.38.12-3.61-2.53-8.15-.45-11.16,2.03,3.68-4.56,6.1-5.29,11.88-4.9,1.83-.12,3.82-1.51,5.03.44-1,1.04-3.46.69-4.96.95Z"/>
    <path class="cls-10" d="M44.03,38.83c.23.23.99.98.5,1.2-2.5.75-5.09,1.45-7.5,2.54-.08.04-.25.09-.16-.04,1.72-2.35,4.33-3.32,7.16-3.7Z"/>
    <path class="cls-8" d="M18.12,43.62c-.06,2.79-5.28-1.91-3.02-3.07,1.49.03,2.92,1.65,3.02,3.07Z"/>
    <path class="cls-10" d="M29.34,39.88c-.05.33-.13.75-.22,1.08-.76-2.19-.9-4.72-1.53-6.99,2.53-2.83,2.03,4.54,1.75,5.91Z"/>
    <path class="cls-6" d="M61.04,25.85c-1.17-3.39-.99-1.2-.16-4.27.66-.37,1.34,1.3,1.35,1.95-.13.77-.08,2.55-1.19,2.32Z"/>
    <path class="cls-10" d="M14.22,45.76c-1.18-.03-2.63-1.68-1.31-2.51.25-.12.56-.33.73-.01.73.9,1.76,1.52,2.71,2.15-.51.47-1.45.37-2.13.38Z"/>
    <path class="cls-11" d="M43.88,42.06c-1.87.99-3.36,2.49-4.81,3.97-4.02,1.36,4.53-4.71,4.81-3.97Z"/>
    <path class="cls-6" d="M9.28,30.04c.24,1.17.94,2.17,1.55,3.18-1.55-.14-3.25-2.06-1.55-3.18Z"/>
    <path class="cls-9" d="M30.82,38.45c0-.97-.21-1.9-.21-2.87.41.86.41,1.95.26,2.88-.02,0-.03,0-.05,0Z"/>
    <g>
      <path class="cls-2" d="M86.36,70.28V5.68c.5-.41,1.08-.23,1.6-.23,6.84-.01,13.68-.01,20.51,0,1.41,0,2.82-.02,4.22.03,3.25.12,6.37.83,9.34,2.17,2.36,1.06,4.48,2.49,6.26,4.38,2.76,2.94,4.33,6.42,4.4,10.46.1,5.49-2.26,9.78-6.69,12.97-.24.18-.5.34-.75.5-.25.16-.49.32-.72.47-.01.54.43.56.7.72,1.53.88,2.95,1.92,4.2,3.17,6.14,6.15,6.55,15.66.96,22.31-2.7,3.22-6.17,5.26-10.14,6.5-2.51.78-5.09,1.2-7.72,1.2-8.35.02-16.69.01-25.04,0-.34,0-.68-.04-1.15-.06ZM102.12,42.75c-.05.31-.09.46-.09.61,0,4.67,0,9.34,0,14,0,.18.08.37.13.57.25.03.45.06.64.06,2.56,0,5.12.02,7.68-.02.74-.01,1.5-.14,2.22-.33,3.35-.88,5.55-3.63,5.72-7.1.16-3.24-1.82-6.12-5.01-7.29-1.14-.42-2.33-.58-3.55-.58-2.21,0-4.42,0-6.62,0-.34,0-.69.03-1.13.06ZM102.07,31.21c.2.09.29.17.37.17,2.56,0,5.13.07,7.69-.01,1.62-.05,3.15-.57,4.51-1.52,3.83-2.68,3.76-8.69-.57-11.11-1.44-.8-2.99-1.16-4.62-1.17-2.16-.01-4.32,0-6.48,0-.28,0-.57.06-.9.1v13.53Z"/>
      <path class="cls-2" d="M397.74,71.66c-5.35,0-10.49-1.03-15.3-3.43-5.53-2.77-9.78-6.84-12.35-12.52-1.84-4.07-2.54-8.35-2.05-12.79,1.04-9.55,6.15-16.25,14.6-20.53,3.39-1.72,7.02-2.68,10.8-3.1,5.47-.62,10.84-.18,16.06,1.61,5.05,1.73,9.42,4.51,12.8,8.69,4.43,5.48,6.18,11.76,5.39,18.73-.83,7.37-4.43,13.13-10.37,17.48-3.58,2.62-7.62,4.24-11.95,5.14-2.8.58-4.76.74-7.64.73ZM382.98,45.23c-.05,5.2,2.67,9.8,7.34,12.08,5.06,2.47,10.22,2.47,15.23-.09,4.4-2.24,6.86-5.97,7.22-10.92.43-5.91-2.84-11.11-8.35-13.38-4.12-1.7-8.33-1.78-12.51-.25-5.4,1.97-8.83,6.67-8.94,12.56Z"/>
      <path class="cls-2" d="M207.94,71.66c-4.9.02-9.85-.94-14.52-3.12-3.32-1.55-6.26-3.62-8.72-6.34-4.44-4.93-6.56-10.74-6.42-17.37.14-6.75,2.59-12.52,7.37-17.29,3.45-3.45,7.59-5.75,12.27-7.07,8.21-2.31,16.29-1.97,24.2,1.31,2.9,1.2,5.53,2.86,7.85,4.99,5.35,4.91,8.15,11,8.22,18.28.08,8.36-3.28,15.09-9.83,20.23-3.74,2.94-8.04,4.7-12.68,5.67-2.47.52-4.97.73-7.73.72ZM208.11,31.65c-1.91-.04-3.88.28-5.78.98-6.52,2.4-10.29,8.8-8.57,16.1.93,3.95,3.38,6.78,6.96,8.62,1.85.96,3.83,1.46,5.91,1.64,3.12.27,6.13-.16,8.93-1.59,4.78-2.45,7.46-6.34,7.54-11.77.09-5.48-2.4-9.53-7.18-12.16-2.38-1.31-4.97-1.85-7.81-1.82Z"/>
      <path class="cls-4" d="M349.63,50.89c4.57,1.66,9.06,3.38,13.63,5.12-.14.38-.23.71-.38,1.01-1.56,3.17-3.81,5.78-6.55,7.98-3.6,2.87-7.67,4.77-12.15,5.77-6.68,1.48-13.28,1.24-19.77-1-4.15-1.43-7.82-3.66-10.88-6.84-4.37-4.53-6.7-9.96-6.98-16.25-.31-6.95,1.73-13.09,6.4-18.3,2.98-3.32,6.64-5.66,10.81-7.22,3.56-1.34,7.25-2.01,11.05-2.12,4.41-.12,8.73.37,12.91,1.83,6.38,2.24,11.29,6.25,14.56,12.2.16.3.3.61.44.91-1.11.65-10.32,4.26-13.3,5.21-.18-.25-.4-.51-.58-.8-2.72-4.35-6.69-6.52-11.77-6.74-2.81-.12-5.53.28-8.04,1.59-4.56,2.37-7.07,6.13-7.41,11.28-.46,7.05,4.14,12.51,10.75,14.02,2.79.64,5.59.58,8.36-.17,3.19-.86,5.7-2.68,7.57-5.39.43-.62.8-1.27,1.32-2.1Z"/>
      <path class="cls-2" d="M301.33,33.97c-1.09.67-8.93,3.76-13.3,5.26-.29-.42-.59-.87-.89-1.31-1.92-2.87-4.51-4.85-7.87-5.71-3.76-.96-7.49-.82-11.07.77-6.79,3.03-8.57,9.56-7.89,14.38.63,4.45,3.76,9.55,10.64,11.19,2.63.62,5.3.59,7.93-.04,3.65-.87,6.45-2.94,8.44-6.12.29-.46.57-.94.85-1.4.2.02.36,0,.49.04,4.37,1.63,8.74,3.28,13.18,4.95-.11.35-.16.64-.28.89-1.64,3.43-4.08,6.2-7.08,8.49-4.25,3.24-9.07,5.11-14.33,5.92-2.9.44-5.82.5-8.73.26-5.24-.44-10.17-1.9-14.59-4.81-6.74-4.43-10.75-10.61-11.55-18.7-.77-7.73,1.44-14.51,6.8-20.19,3.06-3.25,6.8-5.47,10.99-6.94,3.44-1.2,7-1.8,10.64-1.87,4.31-.09,8.53.41,12.61,1.84,6.22,2.18,11.06,6.04,14.35,11.8.24.43.46.87.68,1.31Z"/>
      <path class="cls-1" d="M436.71,3.14h15.15c.04.33.1.62.12.91.02.3,0,.6,0,.9,0,21.16,0,42.33,0,63.49,0,.59.09,1.19-.11,1.75-1.18.18-12.93.23-15.05.07-.05-.26-.12-.53-.15-.82-.03-.3,0-.6,0-.9,0-21.22,0-42.43,0-63.65,0-.54.02-1.09.04-1.76Z"/>
      <path class="cls-2" d="M173.86,33.48c-.55-.05-1.05-.1-1.54-.14-2.12-.17-4.22-.07-6.28.48-.29.08-.58.17-.86.27-3.8,1.33-5.88,4.12-6.08,8.12-.03.55-.01,1.11-.01,1.66,0,8.19,0,16.39,0,24.58,0,.55,0,1.1,0,1.72-.34.06-.62.15-.9.15-4.47,0-8.95,0-13.42,0-.25,0-.5-.03-.74-.05-.32-.54-.19-1.11-.19-1.65-.01-5.63,0-11.26,0-16.89,0-9.85,0-19.71,0-29.56,0-.55.03-1.09.04-1.52.11-.15.13-.2.17-.23.04-.03.09-.04.14-.04,3.72-.02,7.44-.03,11.16-.04.45,0,.9,0,1.39,0,.68,1.67.76,3.45,1.38,5.2.96-.83,1.78-1.64,2.71-2.31.93-.67,1.92-1.29,2.96-1.79.99-.48,2.04-.86,3.11-1.11,1.12-.26,2.28-.39,3.43-.45,1.15-.06,2.3.04,3.52.07.06.37.15.65.15.93,0,3.87,0,7.74,0,11.61,0,.29-.08.58-.13.97Z"/>
      <path class="cls-7" d="M463.76,70.26c-.18-1.26-.22-48.06-.05-49.76.21-.05.44-.14.67-.14,4.62,0,9.25,0,13.87,0,.14,0,.29.05.54.09.04.26.1.54.12.82.02.3,0,.6,0,.9,0,15.43,0,30.86,0,46.29,0,.55,0,1.1,0,1.71-.3.06-.53.15-.76.15-4.62,0-9.25,0-13.87,0-.15,0-.3-.04-.52-.07Z"/>
      <path class="cls-1" d="M471.41,15.53c-1.72,0-3.4-.21-4.99-.94-2.87-1.33-4.42-3.55-4.42-6.75,0-3.26,1.54-5.59,4.51-6.84,3.09-1.31,6.26-1.32,9.4-.1,3.9,1.52,5.43,5.38,4.42,9.11-.53,1.94-1.78,3.34-3.54,4.3-1.68.91-3.49,1.23-5.37,1.22Z"/>
    </g>
  </g>
</svg>