<svg width="734" height="164" viewBox="0 0 734 164" fill="none" xmlns="http://www.w3.org/2000/svg">
<g clip-path="url(#clip0_435_138)">
<rect x="54.6667" width="27.3333" height="27.3333" fill="black"/>
<rect x="109.333" width="27.3333" height="27.3333" fill="black"/>
<rect x="27.3333" y="27.3333" width="27.3333" height="27.3333" fill="black"/>
<rect x="82" y="27.3333" width="27.3333" height="27.3333" fill="black"/>
<rect x="136.667" y="27.3333" width="27.3333" height="27.3333" fill="black"/>
<rect y="54.6667" width="27.3333" height="27.3333" fill="black"/>
<rect x="54.6667" y="54.6667" width="27.3333" height="27.3333" fill="black"/>
<rect y="82" width="27.3333" height="27.3333" fill="black"/>
<rect x="54.6667" y="82" width="27.3333" height="27.3333" fill="black"/>
<rect x="27.3333" y="109.333" width="27.3333" height="27.3333" fill="black"/>
<rect x="82" y="109.333" width="27.3333" height="27.3333" fill="black"/>
<rect x="136.667" y="109.333" width="27.3333" height="27.3333" fill="black"/>
<rect x="54.6667" y="136.667" width="27.3333" height="27.3333" fill="black"/>
<rect x="109.333" y="136.667" width="27.3333" height="27.3333" fill="black"/>
<path d="M277.328 120.728C289.488 120.728 296.144 113.176 300.88 98.2H307.92L305.232 120.856C297.168 125.336 288.208 128.28 274.768 128.28C248.016 128.28 231.12 109.72 231.12 83.992C231.12 54.168 251.088 35.864 276.304 35.864C289.36 35.864 298.704 39.32 304.848 44.312V64.28H297.936C294.48 50.072 287.184 43.288 275.664 43.288C256.72 43.288 248.912 60.44 248.912 80.28C248.912 103.448 258.512 120.728 277.328 120.728ZM344.336 117.656C349.328 117.656 352.784 116.248 357.136 113.176V90.776L342.16 96.536C337.424 98.328 334.736 101.784 334.736 106.648C334.736 113.688 338.192 117.656 344.336 117.656ZM372.624 80.536C372.624 83.608 372.24 106.264 372.24 110.232C372.24 115.352 373.904 118.296 377.488 118.296C378.64 118.296 381.456 118.04 383.376 117.528L384.144 121.624C379.792 125.976 374.928 128.28 369.552 128.28C362.768 128.28 359.056 123.544 357.52 116.632C353.04 122.008 346.128 128.152 336.4 128.152C325.008 128.152 319.12 120.472 319.12 110.616C319.12 98.84 328.208 94.744 336.784 91.8L357.136 84.504V77.72C357.136 69.4 354.576 63.768 346.128 63.768C339.856 63.768 336.784 66.84 336.784 72.728C336.784 75.16 337.04 77.336 337.68 80.024L326.416 81.688C323.984 80.024 322.832 77.592 322.832 74.136C322.832 63 333.712 57.112 348.432 57.112C364.176 57.112 372.624 64.152 372.624 80.536ZM414.193 56.856V77.848C421.489 62.232 425.329 57.112 433.521 57.112C435.825 57.112 437.489 57.88 438.513 58.776V72.856H435.697C427.761 72.856 421.745 73.88 414.193 82.072V113.688C414.193 119.832 417.265 120.216 425.969 121.24V127H389.489V121.24C395.121 120.472 398.705 119.832 398.705 113.944V72.216L390.129 66.712V63.512L410.481 56.856H414.193ZM467.865 43.288V58.392H486.681V66.072H467.865V109.208C467.865 115.992 470.809 118.424 477.337 118.424C480.921 118.424 485.145 117.4 488.345 115.736L490.009 119.704C485.145 124.952 478.105 128.28 469.273 128.28C459.033 128.28 452.505 123.416 452.505 111.64V66.072H443.289V61.208C450.457 57.496 457.369 51.48 463.257 43.288H467.865ZM527.364 57.112C544.772 57.112 553.86 69.4 553.86 85.912V90.136H509.188C509.188 105.624 517.892 115.992 531.46 115.992C540.548 115.992 546.564 111.768 551.172 105.624L553.988 107.288C550.788 119.704 541.06 128.28 526.084 128.28C507.268 128.28 495.364 114.072 495.364 94.872C495.364 72.216 509.188 57.112 527.364 57.112ZM525.316 64.152C516.1 64.152 510.596 73.24 509.572 83.608H539.396C539.396 71.832 534.66 64.152 525.316 64.152ZM589.83 128.28C580.614 128.28 571.91 126.232 565.638 121.624L564.87 105.112H571.526C573.958 115.608 579.974 121.752 590.214 121.752C597.766 121.752 602.63 118.296 602.63 112.152C602.63 104.856 597.51 102.296 585.99 99.096C573.062 95.384 565.51 90.008 565.51 77.848C565.51 65.304 574.726 57.112 589.19 57.112C598.022 57.112 605.318 59.288 610.95 62.616V77.976H604.422C602.502 68.632 597.382 63.768 588.678 63.768C582.022 63.768 578.182 67.736 578.182 72.984C578.182 79.256 582.406 82.584 592.902 85.4C606.086 88.984 615.174 93.464 615.174 106.904C615.174 119.576 605.702 128.28 589.83 128.28ZM649.568 57.112V113.944C649.568 119.832 653.024 120.472 658.784 121.24V127H624.864V121.24C630.496 120.472 634.08 119.832 634.08 113.944V71.96L625.504 66.584V63.512L645.984 57.112H649.568ZM641.376 49.432C635.616 49.432 631.52 45.08 631.52 39.832C631.52 34.584 635.616 30.232 641.376 30.232C647.008 30.232 651.104 34.584 651.104 39.832C651.104 45.08 647.008 49.432 641.376 49.432ZM693.211 117.656C698.203 117.656 701.659 116.248 706.011 113.176V90.776L691.035 96.536C686.299 98.328 683.611 101.784 683.611 106.648C683.611 113.688 687.067 117.656 693.211 117.656ZM721.499 80.536C721.499 83.608 721.115 106.264 721.115 110.232C721.115 115.352 722.779 118.296 726.363 118.296C727.515 118.296 730.331 118.04 732.251 117.528L733.019 121.624C728.667 125.976 723.803 128.28 718.427 128.28C711.643 128.28 707.931 123.544 706.395 116.632C701.915 122.008 695.003 128.152 685.275 128.152C673.883 128.152 667.995 120.472 667.995 110.616C667.995 98.84 677.083 94.744 685.659 91.8L706.011 84.504V77.72C706.011 69.4 703.451 63.768 695.003 63.768C688.731 63.768 685.659 66.84 685.659 72.728C685.659 75.16 685.915 77.336 686.555 80.024L675.291 81.688C672.859 80.024 671.707 77.592 671.707 74.136C671.707 63 682.587 57.112 697.307 57.112C713.051 57.112 721.499 64.152 721.499 80.536Z" fill="black"/>
</g>
<defs>
<clipPath id="clip0_435_138">
<rect width="734" height="164" fill="white"/>
</clipPath>
</defs>
</svg>
