<svg version="1.1" id="Layer_1" xmlns:x="ns_extend;" xmlns:i="ns_ai;" xmlns:graph="ns_graphs;" xmlns="http://www.w3.org/2000/svg" xmlns:xlink="http://www.w3.org/1999/xlink" x="0px" y="0px" viewBox="0 0 191.2 41.9" style="enable-background:new 0 0 191.2 41.9;" xml:space="preserve">
 <style type="text/css">
  .st0{fill:#252525;}
 </style>
 <metadata>
  <sfw xmlns="ns_sfw;">
   <slices>
   </slices>
   <sliceSourceBounds bottomLeftOrigin="true" height="41.9" width="191.2" x="104.7" y="-221.1">
   </sliceSourceBounds>
  </sfw>
 </metadata>
 <g>
  <path class="st0" d="M43.2,18.6v5.9h-1c-1-4.2-1.7-4.8-5.2-4.8h-3.8v9c4.8-0.1,5.5-0.8,5.7-3.5H40v8.1h-1.1
		c-0.1-2.6-0.9-3.4-5.7-3.5v10.3h0.6c7.4,0,8.2-1.7,8.8-5.7h1.1l-0.6,6.8H26.9v-1.1h2.9V19.7h-2.9v-1.1H43.2 M153.4,10.7h36.7v1.1
		h-36.8L153.4,10.7z M149.6,0L124,10.7H0v1.1h124.2L150,1L149.6,0 M14.1,40.7c-2,0.5-4.1,0.7-6.1,0.7H0v-1.1h2.9V19.7H0v-1.1h8
		c2.1-0.1,4.1,0.1,6.1,0.6c4.5,1.3,6.8,5,6.8,10.7S18.6,39.4,14.1,40.7 M13.3,20.6c-1.7-0.6-3.5-0.9-5.3-0.8H6.4v20.5H8
		c1.8,0.1,3.6-0.2,5.3-0.8c2.7-1.2,3.8-4,3.8-9.5S16,21.8,13.3,20.6L13.3,20.6z M118.7,41.4l3.6-15.3h2.2V25h-6.2v1.1h2.7L118.2,38
		l-0.7-2.7l-2.6-8.7h-2.3L109.4,38l-0.6-2.8l-2.2-9.1h2.5V25h-7.6v1.1h2.2l3.7,15.3h2.3l3.3-11.7l0.8,3l2.6,8.7L118.7,41.4
		 M183.6,24.7c5.1,0,7.6,2.6,7.6,8.5s-2.4,8.5-7.6,8.5S176,39,176,33.2S178.4,24.7,183.6,24.7 M183.6,25.8c-1.9,0-4.2,0.9-4.2,7.4
		s2.3,7.4,4.2,7.4s4.2-0.9,4.2-7.4S185.4,25.7,183.6,25.8L183.6,25.8z M173.4,19.3c-2.1-0.7-4.2-1.1-6.4-1
		c-7.6,0-11.4,4.1-11.4,11.7c0,7.4,3.8,11.7,11.4,11.7c2.2,0,4.4-0.4,6.4-1.2l0.5-5.9h-1.1c-0.7,3.8-2.7,5.9-6,5.9
		c-1.6,0.1-3.2-0.4-4.5-1.5c-1.7-1.7-2.6-4.6-2.6-9s0.9-7.6,2.8-9.2c1.1-0.9,2.5-1.4,3.9-1.3c3.5,0,5.4,2.2,6,5h1L173.4,19.3
		 M64.9,19.4c-1.8-0.7-3.8-1-5.7-1c-4.8,0-7.5,2.3-7.5,5.9c0,3.2,1.8,4.9,4.8,6.2l3.1,1.3c0,0,3.2,2.5,3.2,4.6
		c0,2.7-1.5,4.2-4.4,4.2s-5.2-2.1-6.1-6h-1l0.5,5.9c1.9,0.8,3.9,1.2,6,1.2c4.9,0,8.1-2.5,8.1-6.8c0-3.6-2-5.1-5-6.3l-3-1.2
		c-2.1-0.9-3-1.9-3-4.2s1.7-3.6,3.9-3.6c2.8,0,4.4,1.7,5.1,5.1h1.1L64.9,19.4 M83,29.3c0-3.3-2.1-4.7-4.5-4.7
		c-2.2-0.1-4.3,1.1-5.4,3v-9h-5.4v1.1h2.2v20.5h-2.2v1.1h7.7v-1.1h-2.3v-9c0-1.1,0.2-2.1,0.8-3.1c0.7-1.3,2-2,3.5-2.1
		c1.6,0,2.5,1.1,2.5,3.2v11h-2.3v1.1h7.7v-1.2H83V29.3 M99.6,36.3v-7.2c0-3.3-2.4-4.5-6.1-4.5s-6.2,1.3-6.2,3.6
		c0,0.9,0.7,1.7,1.7,1.7h0.2c0.6,0.1,1.2-0.2,1.6-0.6v-0.8c0-1.9,0.9-2.9,2.8-2.9c1.4-0.2,2.7,0.8,2.9,2.2c0,0.2,0,0.4,0,0.6V31
		L91,32.7c-1.5,0.5-4,1.4-4,4.3c0,3.3,2.3,4.7,5.2,4.7c2.4,0,4-0.8,4.8-2.7c0.4,2,2.4,2.8,4.6,2.3v-1
		C100.6,40.1,99.7,38.7,99.6,36.3 M96.5,36.3c0,2.7-1.1,3.9-3.1,3.9c-1.8,0-2.8-1.2-2.8-3.2c0-2.8,1.5-3.3,3.4-4l2.5-0.8V36.3z
		 M145.9,38.5c2-2.1,3-5,2.9-7.9c0-1.4-0.2-2.7-0.7-4h-5.4v1c1.2-0.1,2.5,0.3,3.4,1.2c0.8,0.9,1.3,2.2,1.2,3.4c0,2-0.8,4-2.2,5.5
		c-0.2-0.2-0.6-0.6-0.9-0.9c-3.3-3.3-6.2-7.1-8.4-11.3c-0.5-0.9-0.8-1.9-0.8-2.9c-0.1-1.7,1.1-3.2,2.8-3.3c0.1,0,0.3,0,0.4,0
		c2.1,0,3.8,1.2,4.5,5h1v-5c-1.6-0.7-3.3-1.1-5.1-1c-3.8,0-6.5,1.8-6.5,5.4c0,1.2,0.3,2.4,0.9,3.5c-2.7,0.9-4.5,3.5-4.4,6.4
		c0,3.9,3,8.2,9,8.2c2.1,0.1,4.1-0.4,5.9-1.5c1.6,0.8,3.5,1.3,5.3,1.4l0.3-0.9C148.1,40.3,147,39.5,145.9,38.5 M139.4,40.4
		c-2,0-4-0.7-5.5-2.2c-1.5-1.5-2.3-3.6-2.2-5.7c-0.1-1.7,0.5-3.4,1.7-4.6c2.1,4,4.8,7.6,8.1,10.7c0.4,0.4,0.8,0.8,1.2,1.1
		C141.7,40.2,140.6,40.4,139.4,40.4L139.4,40.4z">
  </path>
 </g>
</svg>