<!--?xml version="1.0" encoding="UTF-8"?-->
<svg id="Layer_1" xmlns="http://www.w3.org/2000/svg" viewBox="0 0 347.4 51.81">
  <defs>
    <style>
      .cls-1,
      .cls-2 {
        fill: #ef393e;
      }

      .cls-2 {
        stroke: #ef393e;
        stroke-linejoin: round;
        stroke-width: .12px;
      }

      .cls-3 {
        fill: #fff;
      }
    </style>
  </defs>
  <path
    d="M0,30.75c0-2.64,1.94-4.29,5.82-4.96,1.2-.19,3.16-.28,5.89-.28h21.99v5.53H14.95c-2.21,0-3.45.43-3.74,1.29-.05.05-.07.16-.07.36v2.87h22.56v5.61H11.14v10.21H0v-20.62Z">
  </path>
  <path
    d="M38.87,25.51h26.01c7.14,0,10.71,1.75,10.71,5.24v5.18c0,1.68-1.06,2.99-3.16,3.95-1.49.68-3.26,1.08-5.32,1.22-.82.05-1.46.07-1.94.07l-1.72-.07,12.65,10.28h-13.15l-11.71-9.63c-.72-.57-1.01-1.24-.86-2.01.38-2.21,2.61-3.31,6.68-3.31h4.53c1.96,0,2.94-.48,2.94-1.44v-2.37c0-.86-.91-1.37-2.73-1.51-.14-.05-.39-.07-.72-.07h-11.07v20.33h-11.14v-25.87Z">
  </path>
  <path
    d="M81.77,45.99v-14.87c0-.34.07-.72.21-1.15.96-2.97,4.48-4.45,10.56-4.45h22.99v5.53h-20.04c-.14.05-.39.1-.72.14-1.25.24-1.87.74-1.87,1.51v2.87h22.63v5.61h-22.63v2.88c0,1.05.96,1.63,2.87,1.72h19.76v5.61h-21.41c-8.24,0-12.36-1.8-12.36-5.39Z">
  </path>
  <path
    d="M121.8,45.99v-14.87c0-.34.07-.72.21-1.15.96-2.97,4.48-4.45,10.56-4.45h22.99v5.53h-20.04c-.14.05-.39.1-.72.14-1.25.24-1.87.74-1.87,1.51v2.87h22.63v5.61h-22.63v2.88c0,1.05.96,1.63,2.87,1.72h19.76v5.61h-21.41c-8.24,0-12.36-1.8-12.36-5.39Z">
  </path>
  <path class="cls-1"
    d="M199.62,25.51h10.78l6.69,17.96,3.66-14.23c.33-1.25,1.28-2.25,2.84-3.02,1.55-.76,3.41-1.15,5.57-1.15,1.1,0,2.23.12,3.38.36,3.07.57,4.86,1.84,5.39,3.81l3.66,14.23,6.61-17.96h10.78l-8.33,22.56c-.67,1.82-2.68,3-6.03,3.52-.91.14-1.82.21-2.73.21-2.21,0-4.12-.35-5.75-1.04-1.63-.69-2.59-1.59-2.87-2.69l-4.31-15.38-3.52,15.38c-.24,1.06-1.2,1.94-2.87,2.66-1.68.72-3.62,1.08-5.82,1.08-1.82,0-3.5-.26-5.03-.79-2.01-.67-3.26-1.66-3.74-2.95l-8.33-22.56Z">
  </path>
  <path class="cls-1" d="M263.15,51.38v-25.87h11.14v25.87h-11.14Z"></path>
  <path class="cls-1"
    d="M281.04,45.05v-19.54h11.14v19.11c0,.77.93,1.15,2.8,1.15h19.69l-.07,5.61h-20.62c-.67,0-1.29-.02-1.87-.07-3.93-.14-6.75-.7-8.48-1.69-1.72-.98-2.58-2.5-2.58-4.56Z">
  </path>
  <path class="cls-1" d="M320.86,51.38v-21.19h11.14v21.19h-11.14Z"></path>
  <circle class="cls-1" cx="326.43" cy="22.87" r="5.57"></circle>
  <polygon class="cls-2"
    points="318.84 22.87 312.8 18.11 312.8 18.11 312.8 18.1 312.59 17.94 312.59 17.94 312.48 17.86 312.4 19.09 305.7 14.89 312.63 20.7 312.72 19.27 312.87 19.35 318.84 22.87">
  </polygon>
  <polygon class="cls-2"
    points="322.04 17.69 317.91 11.2 317.91 11.2 317.91 11.19 317.77 10.97 317.77 10.98 317.69 10.86 317.21 12 312.27 5.83 316.9 13.59 317.45 12.28 317.57 12.4 322.04 17.69">
  </polygon>
  <polygon class="cls-2"
    points="334.27 23.89 340.31 19.12 340.31 19.12 340.31 19.12 340.52 18.96 340.52 18.96 340.63 18.87 340.71 20.11 347.4 15.91 340.48 21.71 340.39 20.29 340.24 20.37 334.27 23.89">
  </polygon>
  <polygon class="cls-2"
    points="332 18.71 336.13 12.21 336.13 12.21 336.13 12.21 336.27 11.99 336.27 11.99 336.35 11.88 336.83 13.01 341.77 6.84 337.15 14.61 336.59 13.29 336.48 13.41 332 18.71">
  </polygon>
  <polygon class="cls-2"
    points="326.22 15.43 326.95 7.76 326.95 7.76 326.95 7.76 326.98 7.5 326.98 7.5 326.99 7.37 325.91 7.97 325.8 .06 324.68 9.03 325.93 8.33 325.94 8.5 326.22 15.43">
  </polygon>
  <rect x="170.49" y="35.98" width="21.14" height="5.79"></rect>
</svg>