<svg xmlns="http://www.w3.org/2000/svg" xmlns:xlink="http://www.w3.org/1999/xlink" id="Layer_2" viewBox="0 0 89.14 27.65"><defs><linearGradient id="Memryx_Gradient" x1="57.26" y1="821.24" x2="43.37" y2="808.9" gradientTransform="translate(97.65 -802.17) rotate(9.57)" gradientUnits="userSpaceOnUse"><stop offset="0" stop-color="#112441"></stop><stop offset=".6" stop-color="#1fb1d5"></stop><stop offset=".74" stop-color="#3cbbbb"></stop></linearGradient><filter id="outer-glow-1" x="3.52" y="6.28" width="1.84" height="1.87" filterUnits="userSpaceOnUse"><feGaussianBlur stdDeviation=".52"></feGaussianBlur></filter><filter id="outer-glow-2" x="3.02" y="2.13" width="1.09" height="1.11" filterUnits="userSpaceOnUse"><feGaussianBlur stdDeviation=".68"></feGaussianBlur></filter><filter id="outer-glow-3" x="3.94" y="0" width=".73" height=".74" filterUnits="userSpaceOnUse"><feGaussianBlur stdDeviation=".68"></feGaussianBlur></filter><filter id="outer-glow-4" x="0" y="5.44" width="1.09" height="1.11" filterUnits="userSpaceOnUse"><feGaussianBlur stdDeviation=".68"></feGaussianBlur></filter><filter id="outer-glow-5" x="4.37" y="11.27" width="1.84" height="1.87" filterUnits="userSpaceOnUse"><feGaussianBlur stdDeviation=".52"></feGaussianBlur></filter><filter id="outer-glow-6" x="8.72" y="2.37" width="1.84" height="1.87" filterUnits="userSpaceOnUse"><feGaussianBlur stdDeviation=".52"></feGaussianBlur></filter><filter id="outer-glow-7" x="8.55" y="9.81" width="1.84" height="1.87" filterUnits="userSpaceOnUse"><feGaussianBlur stdDeviation=".52"></feGaussianBlur></filter><filter id="outer-glow-8" x="12.05" y="11.78" width="1.84" height="1.87" filterUnits="userSpaceOnUse"><feGaussianBlur stdDeviation=".52"></feGaussianBlur></filter><filter id="outer-glow-9" x="12.49" y="5.84" width="1.84" height="1.87" filterUnits="userSpaceOnUse"><feGaussianBlur stdDeviation=".52"></feGaussianBlur></filter><filter id="outer-glow-10" x="10.88" y="7.88" width="1.32" height="1.34" filterUnits="userSpaceOnUse"><feGaussianBlur stdDeviation=".68"></feGaussianBlur></filter><filter id="outer-glow-11" x="10.87" y="4.09" width="1.09" height="1.11" filterUnits="userSpaceOnUse"><feGaussianBlur stdDeviation=".68"></feGaussianBlur></filter><filter id="outer-glow-12" x="7.68" y="1.17" width=".73" height=".74" filterUnits="userSpaceOnUse"><feGaussianBlur stdDeviation=".68"></feGaussianBlur></filter><filter id="outer-glow-13" x="9.64" y="13.49" width="1.84" height="1.87" filterUnits="userSpaceOnUse"><feGaussianBlur stdDeviation=".52"></feGaussianBlur></filter></defs><g id="Header"><path d="M3.05,7.42c.14-1.03.65-1.83,1.39-2.44-.74,1.62-.64,4.06.08,5.93-1.11-1.04-1.75-2.25-1.47-3.5ZM15.23,13.67c2.33-.15,4.72-2.22,4.51-3.43-.08-.47-.22-.91-.39-1.34-.23-2.21-2.88-4.65-6.85-5.51-4.52-1.39-9.57-.44-10.19,3.91-.55,3.27,2.91,6.59,7.72,7.4.15,0,.35-.02.56-.05,1.11,2.56,2.52,4.54,3.8,4.65,1.7.8,1.06-5.96.99-4.96-.1,1.35-.14,4.02-.69,4.19-1.38-.22-2.68-1.83-3.66-3.94,1.2-.2,2.69-.6,2.43-.53-.71.17-1.66.13-2.7-.08-.42-1-.77-2.1-1.02-3.2.63.16,1.33.3,2.08.42,0,0,.07-.22.07-.22-.83-.19-1.57-.39-2.24-.6-.34-1.6-.46-3.19-.32-4.52.67.04,1.39.13,2.17.28,0,0,.04-.24.04-.24-.76-.26-1.47-.45-2.14-.56.12-.7.34-1.32.65-1.79,2.04.08,4.16.62,5.84,1.53,2.61,1.86,2.84,4.81.83,6.44,1.23-1.89.11-4.79-3.77-5.08,0,0-.07.25-.07.25,2.26.21,5.22,3.15,2.7,4.92-.91.64-1.84,1.16-3.14.9.01.03-.12.02-.14.1-.1,0,.03,0-.07-.01l.33.26c.11,0-.27.07-.16.07.02.03-.1.02-.02,0,1.38.25,2.12.17,2.96-.23,1.14-.24,2.02-.6,2.66-1.06-1.13,1.1-2.8,2.04-2.77,2.04ZM10.25,13.85c-1.5-.37-3.13-1.05-4.47-1.94-.61-.98-.99-2.43-1.08-3.85.59.92,2.03,1.88,4.52,2.57.27,1.09.62,2.19,1.03,3.22ZM9.12,10.2c-6.01-1.99-4.89-4.41-.51-4.38-.06,1.26.14,2.8.51,4.38ZM8.66,5.23c-1.88-.19-3.24.21-3.87.9.12-.72.34-1.35.68-1.8,1.05-.51,2.36-.76,3.74-.79-.29.42-.46,1-.55,1.69Z" style="fill:url(#Memryx_Gradient);"></path><ellipse cx="4.44" cy="7.22" rx=".92" ry=".93" transform="translate(-.72 .5) rotate(-5.92)" style="fill:#1fb1d5; filter:url(#outer-glow-1);"></ellipse><ellipse cx="3.57" cy="2.68" rx=".55" ry=".55" transform="translate(.37 5.79) rotate(-81.12)" style="fill:#1fb1d5; filter:url(#outer-glow-2);"></ellipse><ellipse cx="4.31" cy=".37" rx=".37" ry=".37" transform="translate(3.28 4.57) rotate(-81.12)" style="fill:#1fb1d5; filter:url(#outer-glow-3);"></ellipse><ellipse cx=".55" cy="5.99" rx=".55" ry=".55" transform="translate(-5.46 5.61) rotate(-81.12)" style="fill:#1fb1d5; filter:url(#outer-glow-4);"></ellipse><path d="M27.47,16.06c.6,0,1.11.05,1.52.16.41.1.74.27.99.49s.43.5.53.85c.1.35.16.76.16,1.25v4.38c0,.2-.1.3-.3.3h-1.33c-.2,0-.3-.1-.3-.3v-3.92c0-.28-.02-.52-.05-.71-.04-.19-.1-.35-.2-.46-.1-.11-.24-.19-.42-.24s-.42-.07-.72-.07h-2.38v5.41c0,.2-.1.3-.31.3h-1.33c-.2,0-.3-.1-.3-.3v-5.41h-2.3c-.29,0-.53.03-.72.07s-.34.13-.45.24c-.11.11-.19.27-.24.46-.05.19-.07.43-.07.71v3.92c0,.2-.1.3-.3.3h-1.33c-.21,0-.31-.1-.31-.3v-4.38c0-.49.05-.9.16-1.25.11-.35.29-.63.53-.85s.58-.38.99-.49c.41-.1.92-.16,1.53-.16h6.91Z" style="fill:#112441;"></path><path d="M52.13,16.06c.6,0,1.11.05,1.52.16.41.1.74.27.99.49s.43.5.53.85c.1.35.16.76.16,1.25v4.38c0,.2-.1.3-.3.3h-1.33c-.2,0-.3-.1-.3-.3v-3.92c0-.28-.02-.52-.05-.71-.04-.19-.1-.35-.2-.46-.1-.11-.24-.19-.42-.24s-.42-.07-.72-.07h-2.38v5.41c0,.2-.1.3-.31.3h-1.33c-.2,0-.3-.1-.3-.3v-5.41h-2.3c-.29,0-.53.03-.72.07s-.34.13-.45.24c-.11.11-.19.27-.24.46-.04.19-.07.43-.07.71v3.92c0,.2-.1.3-.3.3h-1.33c-.21,0-.31-.1-.31-.3v-4.38c0-.49.05-.9.16-1.25.11-.35.29-.63.53-.85.25-.22.58-.38.99-.49.41-.1.92-.16,1.53-.16h6.91Z" style="fill:#112441;"></path><path d="M63.48,16.06c.16,0,.24.08.24.24v1.14c0,.16-.08.24-.24.24h-3.6c-.29,0-.53.03-.72.07-.19.05-.34.13-.45.24-.11.11-.19.27-.24.46-.05.19-.07.43-.07.71v4.02c0,.2-.1.3-.3.3h-1.33c-.21,0-.31-.1-.31-.3v-4.38c0-.49.05-.9.16-1.25.11-.35.29-.63.53-.85s.58-.38.99-.49c.41-.1.92-.16,1.53-.16h3.79Z" style="fill:#112441;"></path><path d="M74.57,16.36c0-.2-.1-.3-.29-.3h-1.27c-.19,0-.29.1-.29.3v3.75c0,.28-.02.51-.06.69-.04.18-.12.33-.23.43s-.25.19-.43.23c-.18.05-.42.07-.7.07h-3.34c-.29,0-.51-.02-.69-.07-.17-.05-.31-.13-.4-.23-.1-.11-.16-.25-.19-.43-.03-.18-.05-.41-.05-.69v-3.75c0-.2-.1-.3-.29-.3h-1.27c-.2,0-.3.1-.3.3v4.21c0,.47.05.87.16,1.2.1.33.27.61.51.82.24.21.55.37.95.46.39.1.88.14,1.47.14h3.62c.57,0,1.05-.05,1.45-.14v1.4c0,.29-.02.51-.07.69-.05.17-.13.31-.23.4-.11.1-.25.16-.43.19-.18.03-.41.05-.69.05h-3.75c-.2,0-.3.1-.3.29v1.27c0,.2.1.3.3.3h4.21c.47,0,.87-.05,1.2-.16.33-.1.61-.27.82-.51.21-.24.37-.55.46-.95.1-.39.14-.88.14-1.47v-8.2Z" style="fill:#112441;"></path><path d="M33.95,17.97c.2-.19.6-.28,1.18-.28h5.64c.16,0,.24-.08.24-.24v-1.14c0-.16-.08-.24-.24-.24h-5.83c-.61,0-1.13.05-1.54.15-.41.1-.74.26-.99.48-.25.22-.43.5-.53.85-.11.35-.16.76-.16,1.25v1.96c0,.49.05.9.16,1.25.11.35.29.63.53.85.25.22.58.38.99.48.41.1.92.15,1.54.15h5.83c.16,0,.24-.08.24-.24v-1.14c0-.16-.08-.24-.24-.24h-5.64c-.59,0-.98-.09-1.18-.28-.2-.19-.3-.5-.3-.92v-.27h6.79c.12,0,.19-.06.19-.18v-.86c0-.12-.06-.18-.19-.18h-6.79s0-.27,0-.27c0-.42.1-.73.3-.92Z" style="fill:#112441;"></path><path d="M78.88,12.21c-.07-.04-.17-.06-.3-.06h-2.15c-.15,0-.23.05-.24.15-.01.1.02.19.08.26l4.07,4.19,1.47-1.47-2.73-2.91c-.06-.07-.13-.13-.2-.16Z" style="fill:#112441;"></path><path d="M75.69,23c.02.1.09.15.23.15h2.04c.14,0,.24-.02.31-.05.07-.03.14-.09.21-.17l3.89-4.06,3.88,4.06c.06.08.13.14.2.17.07.03.17.05.3.05h2.15c.15,0,.23-.05.24-.15.02-.1-.01-.19-.09-.26l-5.04-5.29,4.82-4.88c.07-.07.1-.16.09-.26-.02-.1-.1-.15-.24-.15h-2.04c-.13,0-.23.02-.3.06-.03.01-.05.03-.08.05l-2.71,2.71-1.04,1.04h0s-6.78,6.78-6.78,6.78c-.04.06-.05.13-.04.2Z" style="fill:#112441;"></path><ellipse cx="5.29" cy="12.2" rx=".92" ry=".93" transform="translate(-1.23 .61) rotate(-5.92)" style="fill:#1fb1d5; filter:url(#outer-glow-5);"></ellipse><ellipse cx="9.64" cy="3.3" rx=".92" ry=".93" transform="translate(-.29 1.01) rotate(-5.92)" style="fill:#1fb1d5; filter:url(#outer-glow-6);"></ellipse><ellipse cx="9.47" cy="10.74" rx=".92" ry=".93" transform="translate(-1.06 1.03) rotate(-5.92)" style="fill:#1fb1d5; filter:url(#outer-glow-7);"></ellipse><ellipse cx="12.97" cy="12.71" rx=".92" ry=".93" transform="translate(-1.24 1.41) rotate(-5.92)" style="fill:#1fb1d5; filter:url(#outer-glow-8);"></ellipse><ellipse cx="13.41" cy="6.77" rx=".92" ry=".93" transform="translate(-.63 1.42) rotate(-5.92)" style="fill:#1fb1d5; filter:url(#outer-glow-9);"></ellipse><ellipse cx="11.55" cy="8.55" rx=".67" ry=".66" transform="translate(1.32 18.64) rotate(-81.12)" style="fill:#1fb1d5; filter:url(#outer-glow-10);"></ellipse><ellipse cx="11.41" cy="4.65" rx=".55" ry=".55" transform="translate(5.06 15.21) rotate(-81.12)" style="fill:#1fb1d5; filter:url(#outer-glow-11);"></ellipse><ellipse cx="8.04" cy="1.54" rx=".37" ry=".37" transform="translate(5.28 9.25) rotate(-81.12)" style="fill:#1fb1d5; filter:url(#outer-glow-12);"></ellipse><ellipse cx="10.56" cy="14.43" rx=".92" ry=".93" transform="translate(-1.43 1.17) rotate(-5.92)" style="fill:#1fb1d5; filter:url(#outer-glow-13);"></ellipse></g></svg>