<svg xmlns:xlink="http://www.w3.org/1999/xlink" xmlns="http://www.w3.org/2000/svg" style="width:100%;height:100%;" viewBox="0 0 191 53" preserveAspectRatio="none" width="191" height="53"><defs><svg width="191" height="53" viewBox="0 0 191 53" fill="none" id="svg1937247265_4507">
<g clip-path="url(#svg1937247265_4507_clip0_8227_33158)" fill="none">
<path fill-rule="evenodd" clip-rule="evenodd" d="M38.6295 16.9785V39.338C38.6295 39.8171 38.0433 40.047 37.7169 39.696L29.6583 31.0161V22.9067L23.0177 15.7536V1.50372C23.0177 1.02463 23.6039 0.794733 23.9303 1.14572L38.6295 16.9785ZM27.1204 45.6138V23.2543L12.4212 7.42146C12.0948 7.07048 11.5086 7.30037 11.5086 7.77946V22.0294L18.1492 29.1824V37.2919L26.2078 45.9717C26.5342 46.3227 27.1204 46.0928 27.1204 45.6138ZM15.6117 51.8771V29.5177L1.51976 14.3395C0.977489 13.7551 0 14.1394 0 14.9361V28.2928L6.64061 35.4458V43.5553L14.6992 52.2351C15.0256 52.5861 15.6117 52.3562 15.6117 51.8771ZM50.1381 43.9906V13.376H50.1398L64.9812 29.3616L79.7785 13.376V43.9906H74.8175V25.4604L64.9795 36.2303L55.0992 25.4604V43.9906H50.1381ZM86.4933 42.2392C86.2038 42.0321 85.923 41.811 85.6509 41.5741V41.5794C83.5022 39.6577 82.4283 36.7885 82.4283 33.3962C82.4283 30.0039 83.4044 27.3189 85.3542 25.3394C86.0224 24.6707 86.7558 24.1144 87.5529 23.6721C89.1145 22.8035 90.9275 22.37 92.9862 22.37C96.0378 22.37 98.4982 23.444 100.364 25.592C102.229 27.7401 103.105 30.7094 102.993 34.4965H87.3039C87.3771 36.2233 87.9252 37.5536 88.9482 38.4837C89.097 38.6171 89.2553 38.7452 89.424 38.8627C90.7803 39.7665 92.4214 40.2193 94.3425 40.2193H94.3656C96.7871 40.2158 99.0424 39.6068 101.127 38.3959V42.9324C99.1673 43.859 96.9064 44.3521 94.3497 44.41C94.1795 44.4135 94.0076 44.4153 93.8334 44.4153C90.9648 44.4153 88.5179 43.6887 86.4933 42.2392ZM89.3396 27.454C89.6006 27.2416 89.8726 27.0574 90.1534 26.8977L92.9456 26.1817C93.0339 26.1817 93.1215 26.1835 93.2074 26.187C94.5024 26.2379 95.5748 26.6748 96.422 27.4961C96.5365 27.6014 96.6431 27.7138 96.745 27.8313C97.4577 28.6544 97.9016 29.7582 98.075 31.1429H87.3899C87.6444 29.5037 88.2936 28.2736 89.3396 27.454ZM109.389 43.9906H114.054V26.9451H120.542V22.7895H114.054V15.0292H109.389V22.7895H104.556V26.9451H109.389V43.9906ZM123.078 15.0292H127.742L127.739 15.0309V25.0375C129.182 23.2563 131.259 22.3665 133.972 22.3665C136.489 22.3665 138.494 23.186 139.993 24.8251C141.52 26.4362 142.283 28.6 142.283 31.3131V43.9906H137.619V32.0765C137.619 30.5672 137.307 29.3511 136.678 28.4262C136.588 28.2929 136.492 28.1665 136.39 28.0472C135.65 27.1469 134.597 26.6678 133.234 26.6117C133.142 26.6081 133.049 26.6063 132.956 26.6063C130.78 26.6063 129.178 27.461 128.147 29.1703C128.002 29.4142 127.865 29.6757 127.742 29.9548V43.9889H123.078V15.0292ZM155.923 44.4135C159.061 44.4135 161.69 43.3536 163.81 41.2336C165.958 39.0856 167.032 36.4708 167.032 33.3891C167.032 30.6936 166.208 28.3648 164.564 26.4045C164.331 26.1238 164.078 25.8517 163.81 25.5868C161.823 23.5721 159.387 22.5034 156.505 22.3771C156.312 22.3682 156.12 22.3647 155.923 22.3647C153.178 22.3647 150.81 23.1878 148.822 24.8321C148.538 25.0673 148.262 25.3183 147.994 25.5868C145.874 27.7067 144.814 30.3075 144.814 33.3891C144.814 36.4708 145.874 39.0856 147.994 41.2336C150.142 43.3536 152.785 44.4135 155.923 44.4135ZM160.459 38.1819C159.347 39.3752 157.948 40.0087 156.264 40.0824L156.261 40.0806C156.149 40.0859 156.035 40.0876 155.921 40.0876C154.289 40.0876 152.906 39.6016 151.771 38.6276C151.609 38.4889 151.453 38.3398 151.3 38.1801C150.188 36.9604 149.597 35.481 149.526 33.7401C149.521 33.6243 149.519 33.5084 149.519 33.3891C149.519 31.4956 150.112 29.9126 151.3 28.6404C152.517 27.34 154.058 26.6906 155.923 26.6906H155.964C157.783 26.6994 159.282 27.3505 160.459 28.6404C161.675 29.9126 162.282 31.4956 162.282 33.3891C162.282 35.0475 161.818 36.4778 160.887 37.6799C160.754 37.8519 160.612 38.0186 160.459 38.1819ZM180.144 44.4135C177.063 44.4135 174.534 43.3395 172.554 41.1915V41.1932C170.576 39.0452 169.587 36.4445 169.587 33.3909C169.587 30.3373 170.576 27.7365 172.554 25.5885C174.534 23.4405 177.063 22.3665 180.144 22.3665C182.745 22.3665 184.809 23.158 186.335 24.7409V15.0362H191V43.9906H186.335V41.997C184.809 43.6081 182.745 44.4135 180.144 44.4135ZM180.695 40.1736C183.128 40.1736 185.007 39.1839 186.335 37.2061V29.5318C184.977 27.5821 183.097 26.6063 180.695 26.6063C178.857 26.6063 177.347 27.2715 176.159 28.6C174.971 29.9004 174.377 31.4973 174.377 33.3909C174.377 35.2845 174.972 36.8955 176.159 38.2239C177.345 39.5226 178.857 40.1736 180.695 40.1736Z" fill="#000B27"></path>
</g>
<defs>
<clipPath id="svg1937247265_4507_clip0_8227_33158">
<rect width="191" height="51.5485" fill="white" transform="translate(0 0.976074)"></rect>
</clipPath>
</defs>
</svg></defs><use href="#svg1937247265_4507"></use></svg>