<?xml version="1.0" encoding="utf-8"?>
<!-- Generator: Adobe Illustrator 21.1.0, SVG Export Plug-In . SVG Version: 6.00 Build 0)  -->
<!DOCTYPE svg PUBLIC "-//W3C//DTD SVG 1.1//EN" "http://www.w3.org/Graphics/SVG/1.1/DTD/svg11.dtd">
<svg version="1.1" id="Layer_1" xmlns="http://www.w3.org/2000/svg" xmlns:xlink="http://www.w3.org/1999/xlink" x="0px" y="0px"
	 viewBox="0 0 2000 500" style="enable-background:new 0 0 2000 500;" xml:space="preserve" width="150px" height="38px">
<style type="text/css">
	.st0{fill:#0864FF;}
</style>
<g>
	<path class="st0" d="M229.7,71.4V190h-9.4c-3-22.8-8.5-40.9-16.3-54.4s-19-24.2-33.5-32.1s-29.5-11.9-45-11.9
		c-17.5,0-32,5.4-43.5,16.1s-17.2,22.9-17.2,36.5c0,10.5,3.6,20,10.9,28.6c10.5,12.6,35.3,29.5,74.6,50.6
		c32,17.2,53.9,30.4,65.6,39.6c11.7,9.2,20.7,20,27,32.5s9.5,25.5,9.5,39.2c0,26-10.1,48.3-30.2,67.1
		c-20.1,18.8-46.1,28.2-77.8,28.2c-9.9,0-19.3-0.8-28.1-2.3c-5.2-0.8-16-3.9-32.5-9.2c-16.4-5.3-26.8-8-31.2-8
		c-4.2,0-7.6,1.3-10,3.8c-2.5,2.5-4.3,7.8-5.4,15.7h-9.3V312.4h9.3c4.4,24.6,10.3,43,17.7,55.2s18.7,22.4,34,30.5s32,12.1,50.2,12.1
		c21.1,0,37.7-5.6,49.9-16.7c12.2-11.1,18.3-24.3,18.3-39.4c0-8.4-2.3-16.9-7-25.5c-4.6-8.6-11.8-16.6-21.6-24
		c-6.6-5.1-24.5-15.8-53.9-32.2c-29.3-16.4-50.2-29.5-62.6-39.3S40.4,212.5,34,200.7s-9.6-24.8-9.6-38.9c0-24.6,9.4-45.8,28.3-63.6
		C71.8,80.3,95.8,71.4,125,71.4c18.2,0,37.5,4.5,57.9,13.4c9.4,4.2,16.1,6.3,20,6.3c4.4,0,8-1.3,10.7-3.9c2.8-2.6,5-7.9,6.7-15.8
		H229.7z"/>
	<path class="st0" d="M560.9,71.4l7.8,116.6h-7.8c-10.5-34.9-25.4-60-44.8-75.3c-19.4-15.3-42.7-23-69.8-23
		c-22.8,0-43.3,5.8-61.7,17.3c-18.4,11.5-32.8,30-43.4,55.2c-10.5,25.3-15.8,56.7-15.8,94.3c0,31,5,57.9,14.9,80.7
		c9.9,22.7,24.9,40.2,44.9,52.3c20,12.1,42.8,18.2,68.4,18.2c22.2,0,41.9-4.8,58.9-14.3c17-9.5,35.7-28.4,56.1-56.8l7.9,5.1
		c-17.2,30.5-37.2,52.8-60.2,67c-22.9,14.2-50.1,21.2-81.7,21.2c-56.8,0-100.8-21.1-132-63.2c-23.3-31.4-34.9-68.3-34.9-110.8
		c0-34.2,7.7-65.6,23-94.3S327.1,110.7,354,95c26.9-15.8,56.3-23.6,88.1-23.6c24.8,0,49.2,6.1,73.3,18.2c7.1,3.7,12.1,5.6,15.2,5.6
		c4.5,0,8.5-1.6,11.9-4.8c4.4-4.5,7.5-10.9,9.4-19H560.9L560.9,71.4z"/>
	<path class="st0" d="M775.4,422.1L642.9,133.6v229.1c0,21.1,2.3,34.2,6.8,39.4c6.2,7.1,16.1,10.6,29.6,10.6h12.1v9.4H572.1v-9.4
		h12.1c14.5,0,24.8-4.4,30.8-13.1c3.7-5.4,5.5-17.7,5.5-36.9v-224c0-15.2-1.7-26.1-5.1-32.9c-2.3-4.9-6.7-9-13-12.3
		s-16.5-4.9-30.5-4.9v-9.3H669l124.4,268.3L916,79.3h97.1v9.3h-11.9c-14.7,0-25,4.4-31.1,13.2c-3.7,5.4-5.6,17.7-5.6,36.9v224
		c0,21.1,2.4,34.2,7.1,39.4c6.2,7.1,16.1,10.6,29.6,10.6h11.9v9.4H867.4v-9.4h12.2c14.7,0,24.9-4.4,30.8-13.1
		c3.7-5.4,5.6-17.7,5.6-36.9V133.6L783.7,422.1H775.4z"/>
</g>
<g>
	<path class="st0" d="M1176.7,79.3v32.5h-2.6c-0.8-6.3-2.3-11.2-4.5-14.9c-2.1-3.7-5.2-6.6-9.2-8.8c-4-2.2-8.1-3.3-12.4-3.3
		c-4.8,0-8.8,1.5-11.9,4.4s-4.7,6.3-4.7,10c0,2.9,1,5.5,3,7.9c2.9,3.4,9.7,8.1,20.5,13.9c8.8,4.7,14.8,8.4,18,10.9s5.7,5.5,7.4,8.9
		c1.7,3.4,2.6,7,2.6,10.8c0,7.1-2.8,13.3-8.3,18.4c-5.5,5.2-12.6,7.7-21.3,7.7c-2.7,0-5.3-0.2-7.7-0.6c-1.4-0.2-4.4-1.1-8.9-2.6
		c-4.5-1.4-7.4-2.2-8.6-2.2s-2.1,0.3-2.7,1.1c-0.7,0.7-1.2,2.1-1.5,4.3h-2.6v-32.3h2.6c1.2,6.8,2.8,11.8,4.9,15.2
		c2,3.4,5.1,6.1,9.3,8.4c4.2,2.2,8.8,3.3,13.8,3.3c5.8,0,10.4-1.5,13.7-4.6c3.4-3,5-6.6,5-10.8c0-2.3-0.6-4.6-1.9-7
		s-3.3-4.5-5.9-6.6c-1.8-1.4-6.7-4.4-14.8-8.9c-8-4.5-13.8-8.1-17.2-10.8c-3.4-2.7-6-5.6-7.7-8.9c-1.8-3.2-2.6-6.8-2.6-10.7
		c0-6.8,2.6-12.6,7.8-17.4c5.2-4.9,11.8-7.3,19.8-7.3c5,0,10.3,1.2,15.9,3.7c2.6,1.2,4.4,1.7,5.5,1.7c1.2,0,2.2-0.4,3-1.1
		s1.4-2.2,1.8-4.3L1176.7,79.3L1176.7,79.3z"/>
	<path class="st0" d="M1313.4,81.4l1,22.1h-2.6c-0.5-3.9-1.2-6.7-2.1-8.3c-1.4-2.7-3.3-4.7-5.7-5.9c-2.4-1.3-5.5-1.9-9.4-1.9h-13.3
		v71.9c0,5.8,0.6,9.4,1.9,10.8c1.8,2,4.5,2.9,8.1,2.9h3.3v2.6h-39.9V173h3.3c4,0,6.8-1.2,8.5-3.6c1-1.5,1.5-4.9,1.5-10.1v-72h-11.3
		c-4.4,0-7.5,0.3-9.4,1c-2.4,0.9-4.5,2.6-6.2,5.1s-2.7,5.9-3.1,10.1h-2.6l1.1-22.1L1313.4,81.4L1313.4,81.4z"/>
	<path class="st0" d="M1388.2,86.6v37.2h20.7c5.4,0,9-0.8,10.8-2.4c2.4-2.1,3.7-5.9,4-11.3h2.6v32.8h-2.6c-0.7-4.6-1.3-7.5-1.9-8.8
		c-0.8-1.6-2.2-2.9-4.1-3.8c-1.9-0.9-4.8-1.4-8.8-1.4h-20.7v31c0,4.2,0.2,6.7,0.6,7.6c0.4,0.9,1,1.6,1.9,2.1s2.7,0.8,5.3,0.8h16
		c5.3,0,9.2-0.4,11.6-1.1c2.4-0.7,4.7-2.2,6.9-4.4c2.9-2.9,5.8-7.2,8.8-13h2.8l-8.1,23.6h-72.5V173h3.3c2.2,0,4.3-0.5,6.3-1.6
		c1.5-0.7,2.5-1.9,3-3.3c0.5-1.5,0.8-4.5,0.8-9.1V97.8c0-6-0.6-9.6-1.8-11c-1.7-1.8-4.4-2.8-8.3-2.8h-3.3v-2.6h72.5l1,20.6h-2.7
		c-1-5-2.1-8.4-3.2-10.2c-1.2-1.8-2.9-3.3-5.2-4.2c-1.8-0.7-5.1-1-9.8-1C1414.1,86.6,1388.2,86.6,1388.2,86.6z"/>
	<path class="st0" d="M1586.7,81.4V84c-3.3,0.6-5.8,1.7-7.5,3.2c-2.5,2.3-4.6,5.7-6.5,10.4l-32.8,80.1h-2.6L1502,96.6
		c-1.8-4.2-3.1-6.7-3.8-7.6c-1.1-1.4-2.6-2.6-4.3-3.4c-1.7-0.8-4-1.3-6.8-1.6v-2.6h38.5V84c-4.4,0.4-7.2,1.2-8.5,2.2
		c-1.3,1.1-1.9,2.4-1.9,4.1c0,2.3,1.1,5.9,3.2,10.8l23.9,55.2l22.2-54.5c2.2-5.3,3.3-9.1,3.3-11.2c0-1.3-0.7-2.6-2-3.9
		c-1.3-1.2-3.6-2.1-6.8-2.6c-0.2,0-0.6-0.1-1.2-0.2v-2.6L1586.7,81.4L1586.7,81.4z"/>
	<path class="st0" d="M1658.7,86.6v37.2h20.7c5.4,0,9-0.8,10.8-2.4c2.4-2.1,3.7-5.9,4-11.3h2.5v32.8h-2.5c-0.7-4.6-1.3-7.5-2-8.8
		c-0.8-1.6-2.2-2.9-4.1-3.8c-1.9-0.9-4.8-1.4-8.8-1.4h-20.7v31c0,4.2,0.2,6.7,0.6,7.6c0.4,0.9,1,1.6,1.9,2.1s2.7,0.8,5.3,0.8h16
		c5.3,0,9.2-0.4,11.6-1.1c2.4-0.7,4.7-2.2,6.9-4.4c2.9-2.9,5.8-7.2,8.8-13h2.8l-8.1,23.6h-72.5V173h3.3c2.2,0,4.3-0.5,6.3-1.6
		c1.5-0.7,2.5-1.9,3-3.3c0.5-1.5,0.8-4.5,0.8-9.1V97.8c0-6-0.6-9.6-1.8-11c-1.7-1.8-4.4-2.8-8.3-2.8h-3.3v-2.6h72.5l1,20.6h-2.7
		c-1-5-2-8.4-3.2-10.2c-1.2-1.8-2.9-3.3-5.2-4.2c-1.8-0.7-5.1-1-9.8-1C1684.5,86.6,1658.7,86.6,1658.7,86.6z"/>
	<path class="st0" d="M1754.5,81.4h25.5l57.6,70.6V97.7c0-5.8-0.6-9.4-1.9-10.8c-1.7-1.9-4.4-2.9-8.1-2.9h-3.3v-2.6h32.8V84h-3.4
		c-4,0-6.8,1.2-8.5,3.6c-1,1.5-1.5,4.9-1.5,10.1v79.4h-2.5l-62.1-75.8v58c0,5.8,0.6,9.4,1.9,10.8c1.8,2,4.5,2.9,8.1,2.9h3.3v2.6
		h-32.8V173h3.3c4,0,6.9-1.2,8.5-3.6c1-1.5,1.5-4.9,1.5-10.1V93.8c-2.7-3.2-4.8-5.3-6.2-6.3c-1.4-1-3.5-2-6.2-2.8
		c-1.3-0.4-3.4-0.6-6.1-0.6L1754.5,81.4L1754.5,81.4z"/>
	<path class="st0" d="M1964.7,79.3v32.5h-2.6c-0.8-6.3-2.3-11.2-4.5-14.9c-2.1-3.7-5.2-6.6-9.2-8.8c-4-2.2-8.1-3.3-12.4-3.3
		c-4.8,0-8.8,1.5-11.9,4.4s-4.7,6.3-4.7,10c0,2.9,1,5.5,3,7.9c2.9,3.4,9.7,8.1,20.5,13.9c8.8,4.7,14.8,8.4,18,10.9s5.7,5.5,7.4,8.9
		c1.7,3.4,2.6,7,2.6,10.8c0,7.1-2.8,13.3-8.3,18.4c-5.5,5.2-12.6,7.7-21.3,7.7c-2.7,0-5.3-0.2-7.7-0.6c-1.4-0.2-4.4-1.1-8.9-2.6
		c-4.5-1.4-7.4-2.2-8.6-2.2c-1.1,0-2.1,0.3-2.7,1.1c-0.7,0.7-1.2,2.1-1.5,4.3h-2.6v-32.3h2.6c1.2,6.8,2.8,11.8,4.9,15.2
		c2,3.4,5.2,6.1,9.3,8.4c4.2,2.2,8.8,3.3,13.8,3.3c5.8,0,10.4-1.5,13.7-4.6c3.4-3,5-6.6,5-10.8c0-2.3-0.6-4.6-1.9-7
		s-3.3-4.5-5.9-6.6c-1.8-1.4-6.7-4.4-14.8-8.9c-8-4.5-13.8-8.1-17.2-10.8c-3.4-2.7-6-5.6-7.7-8.9c-1.8-3.2-2.6-6.8-2.6-10.7
		c0-6.8,2.6-12.6,7.8-17.4c5.2-4.9,11.8-7.3,19.8-7.3c5,0,10.3,1.2,15.9,3.7c2.6,1.2,4.4,1.7,5.5,1.7c1.2,0,2.2-0.4,2.9-1.1
		c0.8-0.7,1.4-2.2,1.8-4.3L1964.7,79.3L1964.7,79.3z"/>
</g>
<g>
	<path class="st0" d="M1202.4,215.8l2.3,33.9h-2.3c-3-10.1-7.4-17.4-13-21.9s-12.4-6.7-20.3-6.7c-6.6,0-12.6,1.7-17.9,5
		c-5.3,3.4-9.5,8.7-12.6,16s-4.6,16.5-4.6,27.4c0,9,1.4,16.8,4.3,23.5c2.9,6.6,7.2,11.7,13,15.2s12.4,5.3,19.9,5.3
		c6.5,0,12.2-1.4,17.1-4.1c4.9-2.8,10.4-8.3,16.3-16.5l2.3,1.5c-5,8.9-10.8,15.3-17.5,19.5c-6.7,4.1-14.6,6.2-23.7,6.2
		c-16.5,0-29.3-6.1-38.4-18.4c-6.8-9.1-10.1-19.8-10.1-32.2c0-9.9,2.2-19.1,6.7-27.4c4.5-8.3,10.6-14.8,18.4-19.4
		c7.8-4.6,16.4-6.9,25.6-6.9c7.2,0,14.3,1.8,21.3,5.3c2.1,1.1,3.5,1.6,4.4,1.6c1.3,0,2.5-0.5,3.5-1.4c1.3-1.3,2.2-3.2,2.7-5.5
		L1202.4,215.8L1202.4,215.8z"/>
	<path class="st0" d="M1321.7,284.4h-38.6l-6.8,15.7c-1.7,3.9-2.5,6.8-2.5,8.7c0,1.5,0.7,2.9,2.2,4c1.5,1.2,4.6,1.9,9.4,2.2v2.7
		H1254V315c4.2-0.7,6.9-1.7,8.1-2.9c2.5-2.4,5.3-7.1,8.3-14.3l35.1-82h2.6l34.7,82.9c2.8,6.7,5.3,11,7.6,13c2.3,2,5.5,3.1,9.5,3.3
		v2.7h-39.3V315c4-0.2,6.7-0.9,8.1-2s2.1-2.5,2.1-4.1c0-2.1-1-5.6-2.9-10.2L1321.7,284.4z M1319.6,278.9l-16.9-40.3l-17.3,40.3
		H1319.6z"/>
	<path class="st0" d="M1433,271.1v29c0,6.3,0.7,10.2,2.1,11.7c1.9,2.2,4.7,3.2,8.5,3.2h3.8v2.7h-42.7V315h3.7c4.2,0,7.2-1.4,9-4.1
		c1-1.5,1.5-5.1,1.5-10.8v-64.4c0-6.3-0.7-10.2-2-11.7c-1.9-2.2-4.8-3.2-8.5-3.2h-3.7v-2.7h36.5c8.9,0,15.9,0.9,21.1,2.8
		c5.1,1.8,9.5,4.9,13,9.3c3.5,4.4,5.3,9.5,5.3,15.5c0,8.1-2.7,14.7-8,19.8c-5.4,5.1-12.9,7.6-22.7,7.6c-2.4,0-5-0.2-7.8-0.5
		C1439.2,272.3,1436.2,271.8,1433,271.1z M1433,266.9c2.6,0.5,4.9,0.9,6.9,1.1s3.7,0.4,5.2,0.4c5.1,0,9.5-2,13.2-5.9
		c3.7-4,5.5-9.1,5.5-15.3c0-4.3-0.9-8.3-2.6-12c-1.8-3.7-4.3-6.5-7.5-8.3s-6.9-2.8-11-2.8c-2.5,0-5.7,0.5-9.6,1.4L1433,266.9
		L1433,266.9z"/>
	<path class="st0" d="M1573,315v2.7h-42.7V315h3.5c4.1,0,7.1-1.2,9-3.6c1.2-1.6,1.8-5.3,1.8-11.3v-64.4c0-5-0.3-8.4-1-10
		c-0.5-1.2-1.5-2.3-3-3.2c-2.2-1.2-4.4-1.8-6.8-1.8h-3.5V218h42.7v2.7h-3.6c-4.1,0-7,1.2-8.9,3.6c-1.2,1.6-1.8,5.3-1.8,11.3V300
		c0,5,0.3,8.4,0.9,10c0.5,1.2,1.5,2.3,3.1,3.2c2.1,1.2,4.3,1.8,6.7,1.8H1573L1573,315z"/>
	<path class="st0" d="M1704.4,218.1l1.1,23.4h-2.8c-0.5-4.1-1.3-7.1-2.2-8.8c-1.5-2.8-3.5-4.9-6.1-6.3c-2.5-1.3-5.8-2-10-2h-14v76.1
		c0,6.1,0.7,9.9,2,11.5c1.9,2.1,4.7,3.1,8.6,3.1h3.5v2.7h-42.3V315h3.5c4.2,0,7.2-1.3,9-3.8c1.1-1.6,1.6-5.1,1.6-10.7v-76.1h-12
		c-4.6,0-7.9,0.3-9.9,1c-2.5,0.9-4.7,2.7-6.5,5.4c-1.8,2.6-2.9,6.2-3.2,10.7h-2.8l1.2-23.4L1704.4,218.1L1704.4,218.1z"/>
</g>
<g>
	<path class="st0" d="M1806.5,284.4h-38.6l-6.8,15.7c-1.7,3.9-2.5,6.8-2.5,8.7c0,1.5,0.7,2.9,2.2,4c1.5,1.2,4.6,1.9,9.4,2.2v2.7
		h-31.4V315c4.2-0.7,6.8-1.7,8.1-2.9c2.5-2.4,5.3-7.1,8.3-14.3l35.1-82h2.6l34.7,82.9c2.8,6.7,5.3,11,7.6,13c2.3,2,5.5,3.1,9.5,3.3
		v2.7h-39.3V315c4-0.2,6.7-0.9,8-2c1.4-1.1,2.1-2.5,2.1-4.1c0-2.1-1-5.6-2.9-10.2L1806.5,284.4z M1804.4,278.9l-16.9-40.3
		l-17.3,40.3H1804.4z"/>
	<path class="st0" d="M1973.3,290.2l2.4,0.5l-8.5,27H1890V315h3.7c4.2,0,7.2-1.4,9.1-4.1c1-1.6,1.5-5.2,1.5-10.9v-64.3
		c0-6.2-0.7-10.1-2-11.7c-1.9-2.2-4.8-3.2-8.6-3.2h-3.7v-2.7h45.1v2.7c-5.3,0-9,0.5-11.1,1.5s-3.6,2.3-4.4,3.9
		c-0.8,1.6-1.2,5.3-1.2,11.2V300c0,4.1,0.4,6.9,1.2,8.4c0.6,1,1.5,1.8,2.7,2.3s5,0.7,11.5,0.7h7.3c7.6,0,13-0.6,16.1-1.7
		s5.9-3.1,8.5-6C1968.2,300.9,1970.7,296.4,1973.3,290.2z"/>
</g>
<g>
	<path class="st0" d="M1150.4,420.7l-24.2-52.8v41.9c0,3.9,0.4,6.3,1.2,7.2c1.1,1.3,2.9,1.9,5.4,1.9h2.2v1.7h-21.8V419h2.2
		c2.7,0,4.5-0.8,5.6-2.4c0.7-1,1-3.2,1-6.8v-40.9c0-2.8-0.3-4.8-0.9-6c-0.4-0.9-1.2-1.6-2.4-2.2c-1.2-0.6-3-0.9-5.6-0.9V358h17.7
		l22.7,49.1l22.4-49.1h17.7v1.7h-2.2c-2.7,0-4.6,0.8-5.7,2.4c-0.7,1-1,3.2-1,6.8v40.9c0,3.9,0.4,6.3,1.3,7.2
		c1.1,1.3,2.9,1.9,5.4,1.9h2.2v1.7H1167V419h2.2c2.7,0,4.6-0.8,5.6-2.4c0.7-1,1-3.2,1-6.8V368l-24.2,52.8L1150.4,420.7L1150.4,420.7
		z"/>
	<path class="st0" d="M1259,399.7h-24.3l-4.2,9.9c-1,2.4-1.6,4.3-1.6,5.5c0,1,0.5,1.8,1.4,2.5s2.9,1.2,5.9,1.4v1.7h-19.7V419
		c2.6-0.5,4.3-1.1,5.1-1.8c1.6-1.5,3.3-4.5,5.2-9l22.1-51.6h1.6l21.8,52.2c1.8,4.2,3.4,6.9,4.8,8.2c1.4,1.2,3.4,1.9,6,2.1v1.7h-24.7
		V419c2.5-0.1,4.2-0.5,5.1-1.2s1.3-1.6,1.3-2.6c0-1.4-0.6-3.5-1.8-6.4L1259,399.7z M1257.8,396.3l-10.6-25.3l-10.9,25.3H1257.8z"/>
	<path class="st0" d="M1302.7,358h17l38.3,47v-36.1c0-3.9-0.4-6.3-1.3-7.2c-1.1-1.3-2.9-1.9-5.4-1.9h-2.2V358h21.8v1.7h-2.2
		c-2.7,0-4.5,0.8-5.6,2.4c-0.7,1-1,3.2-1,6.8v52.8h-1.7l-41.3-50.5v38.6c0,3.9,0.4,6.3,1.2,7.2c1.2,1.3,3,1.9,5.4,1.9h2.2v1.7h-21.8
		V419h2.2c2.7,0,4.6-0.8,5.7-2.4c0.7-1,1-3.2,1-6.8v-43.6c-1.8-2.1-3.2-3.5-4.1-4.2s-2.3-1.3-4.1-1.9c-0.9-0.3-2.3-0.4-4.1-0.4V358z
		"/>
	<path class="st0" d="M1435.6,399.7h-24.3l-4.2,9.9c-1.1,2.4-1.6,4.3-1.6,5.5c0,1,0.5,1.8,1.4,2.5s2.9,1.2,5.9,1.4v1.7H1393V419
		c2.6-0.5,4.3-1.1,5.1-1.8c1.6-1.5,3.3-4.5,5.2-9l22.1-51.6h1.6l21.8,52.2c1.8,4.2,3.3,6.9,4.8,8.2c1.4,1.2,3.4,1.9,6,2.1v1.7h-24.7
		V419c2.5-0.1,4.2-0.5,5.1-1.2s1.3-1.6,1.3-2.6c0-1.4-0.6-3.5-1.8-6.4L1435.6,399.7z M1434.3,396.3l-10.6-25.3l-10.9,25.3H1434.3z"
		/>
	<path class="st0" d="M1538.6,356.6l1.6,19.8h-1.6c-1.6-4.9-3.7-8.6-6.3-11.1c-3.7-3.6-8.5-5.4-14.4-5.4c-8,0-14.1,3.2-18.2,9.5
		c-3.5,5.3-5.2,11.7-5.2,19.1c0,6,1.2,11.4,3.5,16.4c2.3,4.9,5.3,8.5,9.1,10.8c3.7,2.3,7.6,3.5,11.5,3.5c2.3,0,4.6-0.3,6.7-0.9
		c2.2-0.6,4.2-1.4,6.2-2.6v-18.1c0-3.1-0.2-5.2-0.7-6.2s-1.2-1.7-2.2-2.2s-2.8-0.8-5.3-0.8v-1.8h24.3v1.8h-1.2
		c-2.4,0-4.1,0.8-4.9,2.4c-0.6,1.1-0.9,3.4-0.9,6.7v19.2c-3.5,1.9-7,3.3-10.5,4.2c-3.4,0.9-7.3,1.3-11.5,1.3
		c-12.1,0-21.3-3.9-27.6-11.6c-4.7-5.8-7.1-12.5-7.1-20.2c0-5.5,1.3-10.8,4-15.9c3.1-6,7.5-10.6,12.9-13.9c4.6-2.7,10-4,16.3-4
		c2.3,0,4.4,0.2,6.2,0.6c1.9,0.3,4.5,1.2,7.9,2.4c1.7,0.7,2.9,1,3.5,1s1.1-0.3,1.5-0.8c0.4-0.6,0.7-1.6,0.8-3.2L1538.6,356.6
		L1538.6,356.6z"/>
	<path class="st0" d="M1588.5,361.4v24.8h13.8c3.6,0,6-0.6,7.2-1.6c1.6-1.4,2.5-3.9,2.7-7.5h1.7v21.8h-1.7c-0.4-3-0.9-5-1.3-5.9
		c-0.6-1.1-1.5-1.9-2.7-2.5c-1.3-0.6-3.2-0.9-5.8-0.9h-13.8v20.6c0,2.8,0.1,4.5,0.4,5.1c0.2,0.6,0.7,1.1,1.3,1.4
		c0.6,0.4,1.8,0.5,3.5,0.5h10.6c3.5,0,6.1-0.2,7.7-0.7s3.1-1.5,4.6-2.9c1.9-1.9,3.9-4.8,5.9-8.6h1.8l-5.4,15.7h-48.3V419h2.2
		c1.5,0,2.9-0.4,4.2-1.1c1-0.5,1.7-1.2,2-2.2c0.4-1,0.6-3,0.6-6V369c0-4-0.4-6.4-1.2-7.4c-1.1-1.2-3-1.9-5.6-1.9h-2.2V358h48.3
		l0.7,13.7h-1.8c-0.6-3.3-1.4-5.6-2.1-6.8c-0.8-1.2-1.9-2.2-3.5-2.8c-1.2-0.5-3.4-0.7-6.5-0.7L1588.5,361.4L1588.5,361.4z"/>
	<path class="st0" d="M1685.2,420.7L1661,368v41.9c0,3.9,0.4,6.3,1.3,7.2c1.1,1.3,2.9,1.9,5.4,1.9h2.2v1.7h-21.8V419h2.2
		c2.7,0,4.5-0.8,5.6-2.4c0.7-1,1-3.2,1-6.8v-40.9c0-2.8-0.3-4.8-0.9-6c-0.4-0.9-1.2-1.6-2.4-2.2c-1.2-0.6-3-0.9-5.6-0.9V358h17.7
		l22.7,49.1l22.4-49.1h17.7v1.7h-2.2c-2.7,0-4.6,0.8-5.7,2.4c-0.7,1-1,3.2-1,6.8v40.9c0,3.9,0.4,6.3,1.3,7.2c1.1,1.3,3,1.9,5.4,1.9
		h2.2v1.7h-26.6V419h2.2c2.7,0,4.6-0.8,5.7-2.4c0.7-1,1-3.2,1-6.8V368l-24.2,52.8L1685.2,420.7L1685.2,420.7z"/>
	<path class="st0" d="M1770.3,361.4v24.8h13.8c3.6,0,6-0.6,7.2-1.6c1.6-1.4,2.5-3.9,2.7-7.5h1.7v21.8h-1.7c-0.4-3-0.9-5-1.3-5.9
		c-0.5-1.1-1.5-1.9-2.7-2.5c-1.3-0.6-3.2-0.9-5.8-0.9h-13.8v20.6c0,2.8,0.1,4.5,0.3,5.1c0.3,0.6,0.7,1.1,1.3,1.4
		c0.6,0.4,1.8,0.5,3.5,0.5h10.6c3.5,0,6.1-0.2,7.7-0.7s3.2-1.5,4.6-2.9c1.9-1.9,3.9-4.8,5.9-8.6h1.9l-5.4,15.7h-48.3V419h2.2
		c1.5,0,2.9-0.4,4.2-1.1c1-0.5,1.6-1.2,2-2.2s0.5-3,0.5-6V369c0-4-0.4-6.4-1.2-7.4c-1.1-1.2-3-1.9-5.6-1.9h-2.2V358h48.3l0.7,13.7
		h-1.8c-0.6-3.3-1.4-5.6-2.2-6.8c-0.8-1.2-1.9-2.2-3.5-2.8c-1.2-0.5-3.4-0.7-6.5-0.7L1770.3,361.4L1770.3,361.4z"/>
	<path class="st0" d="M1827,358h17l38.3,47v-36.1c0-3.9-0.5-6.3-1.3-7.2c-1.1-1.3-3-1.9-5.4-1.9h-2.2V358h21.8v1.7h-2.2
		c-2.6,0-4.5,0.8-5.6,2.4c-0.7,1-1,3.2-1,6.8v52.8h-1.7l-41.3-50.5v38.6c0,3.9,0.4,6.3,1.2,7.2c1.2,1.3,3,1.9,5.4,1.9h2.2v1.7h-21.8
		V419h2.2c2.7,0,4.6-0.8,5.7-2.4c0.7-1,1-3.2,1-6.8v-43.6c-1.8-2.1-3.2-3.5-4.1-4.2c-1-0.7-2.3-1.3-4.1-1.9
		c-0.9-0.3-2.2-0.4-4.1-0.4V358z"/>
	<path class="st0" d="M1971.3,358l0.7,14.7h-1.8c-0.3-2.6-0.8-4.5-1.4-5.6c-0.9-1.8-2.2-3.1-3.8-4c-1.6-0.8-3.7-1.3-6.3-1.3h-8.8
		v47.9c0,3.9,0.4,6.3,1.3,7.2c1.2,1.3,3,1.9,5.4,1.9h2.2v1.7h-26.6V419h2.2c2.6,0,4.5-0.8,5.6-2.4c0.7-1,1-3.2,1-6.8V362h-7.5
		c-2.9,0-5,0.2-6.2,0.6c-1.6,0.6-3,1.7-4.1,3.4c-1.2,1.7-1.8,3.9-2,6.8h-1.7l0.7-14.7L1971.3,358L1971.3,358z"/>
</g>
</svg>
