<svg width="266" height="84" viewBox="0 0 266 84" fill="none" xmlns="http://www.w3.org/2000/svg">
<path d="M36.7507 0C51.2761 4.95307 52.0803 13.6751 50.8943 17.123C53.2865 14.3727 61.2422 10.7088 72.7956 20.8105C75.7675 35.8653 68.6161 40.9248 65.0378 41.6201C68.616 42.3154 75.7675 47.3729 72.7956 62.4277C61.2444 72.5294 53.2865 68.8656 50.8943 66.1152C52.0803 69.5632 51.276 78.2852 36.7507 83.2383C22.2255 78.2853 21.4211 69.5632 22.6071 66.1152C20.2148 68.8655 12.2591 72.5293 0.705781 62.4277C-2.26608 47.373 4.88532 42.3155 8.46359 41.6201C4.88531 40.9248 -2.26604 35.8651 0.705781 20.8105C12.2592 10.7089 20.2148 14.3727 22.6071 17.123C21.4211 13.6751 22.2254 4.95306 36.7507 0ZM36.7507 60.21C35.5797 64.09 31.5606 67.2616 23.1833 65.7041C24.9887 71.6306 30.5287 75.7471 36.7488 75.7471H36.7507C42.9686 75.7471 48.5085 71.6284 50.3161 65.7041C41.9388 67.2617 37.9195 64.09 36.7507 60.21ZM9.1052 41.9131C4.87736 46.4405 4.08218 53.2971 7.19113 58.6826C10.3023 64.0681 16.6372 66.8082 22.6726 65.4092C17.1348 58.9332 17.8708 53.8665 20.6472 50.9141C16.7019 51.8415 11.9466 49.9466 9.10715 41.9131H9.1052ZM64.3904 41.9131C61.5508 49.9469 56.7947 51.8417 52.8493 50.9141C55.6259 53.8665 56.3628 58.933 50.8249 65.4092C56.8603 66.8081 63.1975 64.0681 66.3064 58.6826H66.3044C69.4154 53.2971 68.6181 46.4405 64.3904 41.9131ZM52.1843 50.877C47.3224 54.9503 44.3247 53.1102 42.8376 51.9102L42.5622 51.6826C42.8794 53.451 43.4072 57.2972 37.0525 59.6152C39.9789 62.2938 44.3676 62.7883 47.822 60.7939C51.2764 58.7996 53.0403 54.7505 52.1843 50.877ZM21.32 50.876C20.4636 54.7484 22.2301 58.7962 25.6833 60.79C29.1377 62.7843 33.5264 62.2889 36.4529 59.6104C30.0962 57.2923 30.6259 53.4471 30.9431 51.6787C29.57 52.8388 26.505 55.2194 21.32 50.876ZM221.222 26.5742C226.864 26.5742 231.007 30.402 231.008 35.5527C231.008 39.7391 228.314 43.1656 224.316 44.2627L228.07 50.0566H228.073C230.617 53.9818 231.788 55.1638 233.686 56.415L233.643 56.7891C228.258 58.175 226.057 55.6487 225.096 54.167L218.952 44.6885H213.628V52.2988C213.628 54.5578 214.216 55.5789 215.713 56.4131L215.67 56.7871H206.646L206.603 56.4131C208.185 55.5789 208.776 54.5579 208.776 52.2988V31.0625C208.776 28.8032 208.185 27.7825 206.603 26.9482L206.646 26.5742H221.222ZM111.562 26.1191C114.973 26.1191 117.015 27.2986 118.44 27.2988C118.857 27.2988 119.231 27.1833 119.577 26.9248L119.864 26.9688L121.131 34.4941L120.741 34.6523C117.949 31.6025 114.784 30.3233 111.619 30.3232C108.453 30.3232 106.324 31.8049 106.324 34.3076C106.324 36.9555 108.712 37.6871 111.647 38.4648L114.582 39.2559V39.2539C119.216 40.477 122.871 42.6345 122.871 48.1309C122.871 53.6271 118.912 57.1807 112.251 57.1807C109.196 57.1806 106.804 56.586 104.712 55.9277C102.72 55.3302 102.275 53.4419 101.816 51.7236L100.927 47.959L101.316 47.8008C104.684 51.4114 108.712 52.8213 112.151 52.8213C115.59 52.8213 117.791 51.1243 117.791 48.6064C117.791 45.8018 115.058 44.709 112.194 44.0029L109.216 43.2402C104.569 42.1322 101.403 39.5424 101.403 34.8369C101.403 29.4581 105.477 26.1191 111.562 26.1191ZM189.485 26.5742C195.127 26.5742 199.27 30.402 199.27 35.5527C199.27 39.7391 196.576 43.1656 192.579 44.2627L196.333 50.0566H196.336C198.137 52.8351 199.762 55.0032 202.725 56.4131L202.681 56.7891C200.813 57.3256 195.779 57.899 193.359 54.167L187.215 44.6885H181.89V52.2988C181.89 54.5578 182.479 55.5789 183.975 56.4131L183.932 56.7871H174.909L174.866 56.4131C176.447 55.5789 177.039 54.5579 177.039 52.2988V31.0625C177.039 28.8032 176.447 27.7825 174.866 26.9482L174.909 26.5742H189.485ZM263.049 52.5156H263.051C263.872 54.6163 264.647 55.5808 266.001 56.415L265.986 56.7891H256.965L256.922 56.415C258.46 55.6243 258.777 54.7159 258.014 52.6738L256.748 49.3652H244.316L243.093 52.6738C242.331 54.7158 242.648 55.6243 244.201 56.415L244.158 56.7891H235.281L235.265 56.415C236.617 55.5808 237.395 54.6163 238.229 52.5156L246.517 31.2363C247.293 29.1942 246.819 27.8693 244.976 27.0068L245.02 26.5742H253.092L263.049 52.5156ZM138.79 26.9482C137.134 27.7825 136.502 28.8032 136.502 31.0625V52.2988C136.502 54.5579 137.134 55.5789 138.79 56.4131L138.746 56.7871H129.408L129.365 56.4131C131.049 55.5789 131.653 54.5579 131.653 52.2988V31.0625C131.653 28.8032 131.049 27.7825 129.365 26.9482L129.408 26.5742H138.746L138.79 26.9482ZM167.972 33.1201L167.598 33.2783C165.899 31.5231 163.842 30.7754 160.994 30.7754H152.605V38.7461H159.853C161.824 38.7461 162.945 38.1556 163.766 36.9043L164.139 36.9482V44.7031L163.766 44.7471C162.947 43.4957 161.824 42.876 159.853 42.876H152.605V52.5869H161.959V52.585C164.707 52.5849 166.764 51.7358 168.606 49.8525L168.936 50.0107L167.268 56.7871H145.627L145.584 56.4131C147.165 55.5789 147.756 54.5579 147.757 52.2988V31.0625C147.757 28.8032 147.167 27.7825 145.584 26.9482L145.627 26.5742H166.26L167.972 33.1201ZM36.7527 27.9072C34.2434 27.9074 31.9359 29.6026 31.282 32.1465C28.7532 31.4428 26.1312 32.5914 24.8777 34.7637C23.6241 36.9361 23.9392 39.7822 25.8142 41.6201C23.9392 43.4602 23.6241 46.3041 24.8777 48.4766C26.1312 50.6489 28.7511 51.7983 31.282 51.0947C31.9381 53.6385 34.2435 55.3329 36.7527 55.333C39.2619 55.333 41.5693 53.6385 42.2234 51.0947C44.7522 51.7986 47.3751 50.649 48.6286 48.4766C49.8821 46.3041 49.5669 43.458 47.6921 41.6201C49.5669 39.78 49.8822 36.9361 48.6286 34.7637C47.3751 32.5912 44.7544 31.4426 42.2234 32.1465C41.5672 29.6025 39.262 27.9072 36.7527 27.9072ZM21.0193 32.8828C17.2368 34.0777 14.6121 37.6315 14.612 41.6201C14.612 45.6109 17.2368 49.1626 21.0193 50.3574C19.8486 43.6953 23.4431 42.2285 25.1335 41.6201C23.4431 41.0096 19.8507 39.545 21.0193 32.8828ZM52.4802 32.8828C53.6511 39.5455 50.0552 41.0118 48.365 41.6201C50.0552 42.2306 53.651 43.6948 52.4802 50.3574C56.2626 49.1625 58.8874 45.6087 58.8874 41.6201C58.8874 37.6293 56.2626 34.0777 52.4802 32.8828ZM42.2195 38.4609V44.7764L36.7488 47.9355L31.278 44.7764V38.4609L36.7488 35.3027L42.2195 38.4609ZM245.911 45.1055H255.149L250.53 32.79L245.911 45.1055ZM22.6745 17.8291C16.6392 16.4301 10.302 19.1702 7.19309 24.5557C4.08201 29.9412 4.87933 36.7978 9.10715 41.3252L9.1091 41.3271C11.9487 33.2912 16.7047 31.3966 20.6501 32.3242C17.8736 29.3718 17.1366 24.3052 22.6745 17.8291ZM66.3083 24.5537C63.1972 19.1682 56.8623 16.4281 50.8269 17.8271C56.3648 24.3033 55.6278 29.3699 52.8513 32.3223C56.7967 31.3946 61.5527 33.2914 64.3923 41.3252C68.6201 36.7978 69.4152 29.9412 66.3064 24.5557L66.3083 24.5537ZM181.887 30.791V40.4453H189.24C192.103 40.4452 194.26 38.3012 194.26 35.5967C194.26 32.892 192.103 30.7911 189.24 30.791H181.887ZM213.625 40.4453H220.977C223.841 40.4452 225.998 38.3012 225.998 35.5967C225.998 32.892 223.841 30.7911 220.977 30.791H213.625V40.4453ZM47.82 22.4502C44.3657 20.4559 39.977 20.9512 37.0505 23.6299L37.0486 23.6318C43.405 25.9497 42.8755 29.7949 42.5583 31.5635C43.9315 30.4033 46.997 28.023 52.1823 32.3672C53.0403 28.4938 51.2743 24.4445 47.82 22.4502ZM36.4509 23.6279C33.5244 20.9493 29.1358 20.4539 25.6814 22.4482C22.2271 24.4426 20.4632 28.4918 21.3191 32.3652C26.5045 28.0208 29.5699 30.4035 30.9431 31.5615L30.9411 31.5596C30.6239 29.7912 30.0962 25.946 36.4509 23.6279ZM36.7507 7.49316C30.5328 7.49319 24.9929 11.6119 23.1853 17.5361C31.5626 15.9785 35.5838 19.1503 36.7527 23.0303C37.9215 19.1503 41.9409 15.9806 50.3181 17.5381C48.5126 11.614 42.9726 7.49512 36.7527 7.49512L36.7507 7.49316Z" fill="#006838"/>
</svg>
